<svg id="Layer_2_Image" data-name="Layer 2 Image" xmlns="http://www.w3.org/2000/svg" viewBox="0 0 250 250"><defs><style>.cls-1{fill:#fff;}</style></defs><title>Artboard 1</title><path d="M137.23,39.17c3.85,1.86,8.13,1.26,12.18,2.07,10.31,2.06,20.35,4.81,29.71,9.72A18.81,18.81,0,0,1,184,54.28c0,.84,0,2,0,3.13,0,22.17.25,44.33-.09,66.49-.26,16.62-3.59,32.73-10.95,47.75-10,20.37-26.82,32.47-48.09,39.17-25.48-8.05-43.59-23.75-52.36-49.36A117.3,117.3,0,0,1,66,123.81c-.09-22.16,0-44.33,0-66.5a7.25,7.25,0,0,1,.55-3.79c7-5,15.38-7.77,23.88-10A84.89,84.89,0,0,1,109,40.22a4.47,4.47,0,0,0,3.24-1ZM70.12,56v6.21c0,19.49.08,39,0,58.48A123.57,123.57,0,0,0,75.27,156c7,24.12,22.6,40.16,46.22,48.54a8.31,8.31,0,0,0,5.82.39c16.08-5.79,29.8-14.74,38.77-29.73a93.86,93.86,0,0,0,13.12-46c.67-23.47.24-47,.26-70.47a26.19,26.19,0,0,0-.43-3.06C142.88,40,106.79,40,70.12,56Z"/><path d="M138,80.12a5.42,5.42,0,0,0-2.66-4.55c-1.2-.89-2.46-1.7-3.64-2.63-4.41-3.45-5.21-4.82-7.1-11.91a2,2,0,0,0-2.23.87V88.32c-3.08,1.2-5.79.69-9,.49V61.7c-1.53-1.21-2.74-.87-3.86-1a6.18,6.18,0,0,1-3.18-.58c-1.31-2.15-.53-4.53-.36-6.8,5.91-1.49,20.8-1.09,23.72.53,6.41-2.47,10.1-2.3,15.18.76.48,2.31-.23,4.47-1,6.64-3.19,0-6.36-3.38-9.47.54,1.84,5,7.51,5.54,10.54,10,.62-3.6.9-6.25,1.54-8.81,2.47-9.88,11.51-13.74,20.7-8.75.07,2.35.23,4.79-.86,7.49-2.41-.9-4.62-2.34-7.58-1.41a6,6,0,0,0-2.9,4,27.28,27.28,0,0,0-.27,12.35A6.26,6.26,0,0,0,161.15,82l5.48-1.64a11.35,11.35,0,0,1,1.32,6.73c-8.14,4.62-13.08,3.53-20.86-4.46C141.9,90,136,91.36,125.64,87.21a9.64,9.64,0,0,1,.79-7.16C130.26,80,134.11,84,138,80.12Z"/><path d="M82.4,89l9.34-36.22c3.33-.56,6.44-.31,10.14-.21,3.77,11.39,5.86,23.25,9.26,35.05-2.62.49-4.88,1-7.15,1.32a7.64,7.64,0,0,1-2-.22c-1-2.22-.5-4.8-2.34-6.85a12.51,12.51,0,0,0-6-.08c-2.86,1.84.08,7.41-5.72,7.49,11.64,14.42,25.26,26,39.09,37.56a121.81,121.81,0,0,1-5.18,12.87c-4.59,1.59-9.23,1.35-14.15,1.42-11-18-20.44-36.71-29.6-56.61,2.4,1.64,2.29,3.89,4,4.84a4.47,4.47,0,0,0,.67,2.34c6.87,14,14.13,27.76,22.28,41,1.28,2.08,2.14,4.52,4.46,6l10.41-.66a51.7,51.7,0,0,0,4.39-11A288.94,288.94,0,0,1,86,89ZM97.09,64.74c-1.45,3.65-2.36,6.33-2.15,9.25,1.37.34,2.5.64,3.37-.5C98.6,70.75,97.09,68.38,97.09,64.74Z"/><path d="M76.1,96.1c2.27,1.5,1.94,3.76,2.5,5.54,4.34,13.89,8.87,27.74,11.85,42,.88,4.21,1.59,8.47,2.54,12.66,3.13,13.77,16.35,24.63,30.45,25.12,4.85.17,9.59-.11,14.18-2.05,9.73-4.11,15-11.77,17.23-21.71,2.27-10.29,1.23-20.17-5-29.05a31.78,31.78,0,0,0-10.46-9.79c-11.44-6.42-22.2-13.89-32.87-21.49a3.71,3.71,0,0,1-1.69-2.45l14,9.68c6.83,4.72,14,8.95,21.05,13.25,11.06,6.71,16.75,16.68,17.15,29.61.29,9.26-1.85,17.86-8,25-10.51,12.28-27.38,13.81-41.22,5.56-9.85-5.86-15.46-14.81-17.25-26.1-2.5-15.75-7.37-30.87-12-46.06C77.7,102.75,76.37,99.72,76.1,96.1Z"/><path d="M123.14,145.76c4.63-1.61,8.87-1.23,13-2.33,3.48,3.19,5.84,7.21,9,11l-5,12.31c-4.24,2.17-9,.79-13,2.64a64.17,64.17,0,0,1-9-11.26C119.27,153.66,121.3,149.71,123.14,145.76Zm1.26,1.6c-1.6,3.68-3.38,7-4.29,10.89,2.75,2.76,4.28,6.39,7.57,8.81,3.59-1.31,7.64,0,11.31-2.31,1.14-3.26,3-6.41,3.79-10.15a72.51,72.51,0,0,0-6.62-8.53C132.18,145.6,128.49,146.54,124.4,147.36Z"/><path d="M107.15,187c1.68-.06.73-2.69,2.6-2.58s1,2.16,1.73,3.12c4.79-2,9.55.38,14.35.1,3.84-.22,4.51.9,4.18,5.38-3,3.34-6.58,1.2-9.59,1.41-1.72-1.78-.41-3.68-1.33-5.13-1.76-1.68-2.87-.87-3.63.61-.47,2.38,2.28,1.91,2.49,3.67-2.84,1.21-3.59-1.6-5.21-2.64-.56.29-.85,1.06-1.81.9s-.87-1.6-1.77-2.18c-2.83,1.63-4.39.37-5.15-2.36-1-.95-2.34-.05-3.22-.53l-.46-1.69-.18.12c1.74.29,2.63-.66,3.17-2.14l-.22.18c1.17,0,2-1.17,3.39-.76,1.33,1.33.24,3.14.79,4.64-.38.37-1,.64-.37,1.57Zm20.48,2.4c-1.43,1.4-1.43,1.4-.23,3.47a1.41,1.41,0,0,0,1-1.37A2.16,2.16,0,0,0,127.63,189.44Zm-6.22.62c1.06-.24,1.76.88,2.57-.65A2.12,2.12,0,0,0,121.41,190.06Zm2.46,2.34c-.69,0-1.57-.83-2.15.39C122.52,193.27,123.23,193.53,123.87,192.4Zm-19.1-7c-.1.08-.27.16-.28.26s.14.2.22.3c.1-.08.27-.16.28-.26S104.85,185.47,104.77,185.37Z"/><path d="M152.19,180.2c.23-1.35-2.14-1.7-1.29-3.36,2-.25,2.48,2,3.86,2.26,1.19.73,1.8-1.2,2.85-.31.64,1.37-2.43,3.94-6.15,5.17-.91.59-.05,2-1.35,2.57-1.81-.72-1.09-3.24-2.84-4.27-2.66,2.05,1.62,3.6.27,5.66-2-.15-1.85-3.06-4-3.24-.52,1.55,1.28,3,1,3.56-1,2.29-2,3.08-3.27,3.49-2.34-.21-3.18-2.18-4.39-3.81-1.44,1.66,1.55,3.51-.68,5.1-1.7-1.48-1.16-4.45-4.08-5.81,6.5-1.27,11.65-4.14,16.89-7.9.92-.32,1.91,1.44,3.32.82,0,.48,0,1.09.75.51Zm-12.39,6c-1.05,2-.24,3,1.53,4C142.94,187.78,142.47,186.64,139.8,186.15Z"/><path d="M100.33,185.12c-.83-.43-2,.21-2,.15-1.51-2.47.38-3.64-.14-5.09l.24-.2-.14.3-2.8.68c-4.2-2.48-4.6-3-5.18-7.42-.38-1.06-1.69-1-2.34-1.95,2.06-1.88,4.46-1.25,6.64-1.16.75.93.4,1.77.48,2.56a.9.9,0,0,0-.79,1.21c-.74-.06-1,.32-1,1-.34.11-1.18-.13-.48.69l.36-.81c.71.05,1.1-.22,1-1,.69.17,1.06-.14,1.19-.81,1.82-.06,2.74,1.29,3.31,2.59s1.58,1.51,2.2,2.29c.61,1.27-.95,2.17-.4,3.42,1.22.49,1.92-1.05,3.23-.72,1.18,1-.7,1.5-.63,2.37l.22-.18c-1.43.17-2.76.48-3.17,2.14ZM94,178.39c2.07,1.14,2.79.18,3.09-1.46,0-.21-.32-.5-.49-.76C95.38,176.12,94.64,176.77,94,178.39Z"/><path d="M144.33,138c4.32.48,4.32.48,7.11-.65,0,3.48-.41,3.61-7.87,2.5a89,89,0,0,1-8.17-13.92c-1.74-3.83-4.24-5.72-8.27-6-.76,0-1.72,0-2-1,5.74-1,8.9.56,11.33,5.14S141.65,133.27,144.33,138Z"/><path d="M106.13,168.63c-1.43,1-2.4,1.71-3.67.22,3.07-2.63,1.94-6.46,2.89-9.76-2.05-3.91-3.38-7.93-6.43-11.21s-3.48-7.57-1.3-12.21c.78,1.82.47,3.29.44,4.7a8.81,8.81,0,0,0,2.81,7.12c3,2.78,4.42,6.64,5.76,10.29C107.9,161.23,106.23,164.94,106.13,168.63Z"/><path d="M161.13,158c.28,1.8-.88,4.06,1.06,5,2.73.68,2.75-1.84,4.3-2.81.72,3-1.51,4-2.91,5.43l1,2.17a3.81,3.81,0,0,1-3.53,3.57c.74,1.92.81,3.48-1,4.55-1.05-.8,0-1.57-.25-2.33-1.26-.89-2.37,1.36-3.69.17-1.51-1.2-1.33-1.92,1.21-4.61l-.67,2.67c1.41.76,1.84-.23,2.4-1.08a2.73,2.73,0,0,0-1.84-1.5c0-2.29.49-4.31,3.23-5.21-1.69-2.43-1.17-4.29.83-5.81Zm-2,8.62c1.19,3.28,1.19,3.28,4,1.39C162.35,166.45,161.3,165.66,159.13,166.6Z"/><path d="M161.28,158.15c-1.4-2.78-.77-5.6-.54-8.41,1.73-.09,1,1.66,2.14,2l.8-1.73c1.43-.37,1.08,1.35,1.83,1.67,1.28-.15.39-1.92,1.7-2,1.09.67.67,1.67.53,2.57-1.28,1.82-3.52.61-4.93,1.59-1,.91-.63,1.86-.54,2.61a2.62,2.62,0,0,0,3,.75c1.49-.08.52-2.45,2.39-2.73.44,2.11-.65,3.24-1.75,4.28a4.36,4.36,0,0,1-4.76-.76Z"/><path d="M153.8,146c-.15,2.84-2.63,4.8-3.08,7.51-.36,3,1.85,5.91.08,9.31-2-3.07-1.06-6.45-2.52-9.31l4.46-8.08Z"/><path d="M160.77,104.84a2.07,2.07,0,0,1,1.06-2c.44-.39,1.19-.52,1.15-1.33l-2.12-1c.3-1.63,2.61-1.76,6.49-.48.44,1.59-1.3,1.63-1.86,2.62l1.77,2.06A16.39,16.39,0,0,1,160.77,104.84Z"/><path d="M123.37,174.45c1.07.93,2.34,2,3.54,3.12.43.41,1.08.79.82,1.92-2.37-.07-3.37-2.42-5.42-3.34-2.9-.18-5.89,1.82-9.07.59C115.13,175.23,118.46,174.46,123.37,174.45Z"/><path d="M164.09,127c1.12,1.34,3.48,1.39,3.72,3.64.24,1.48-1.3,2.16-1.6,3.42l.13-.13c-1.44.09-2.89.38-4.24-.15a3.19,3.19,0,0,1-1.59-3.69c.67-1.83,2.41-2.12,3.77-2.93Zm-1.88,4.63c1.52,1.17,2.8.94,4.13-.38C163.74,128.83,163.74,128.83,162.21,131.67Z"/><path d="M149.12,166.56c-1.79,2.53-4.41,2.56-6.32,4.16-1.67,1.7-2.25,4.51-4.57,6.19C138.2,171.48,142,167.81,149.12,166.56Z"/><path d="M164.38,97A2.23,2.23,0,0,0,166.2,95c-.59-1.54-1.77.4-2.53-.57a1.23,1.23,0,0,1,.66-1.92,2.38,2.38,0,0,1,3.44,1.79c-1.25,3.56-2.63,4.69-5,3.74-2.09-.85-2.94-2.4-1.66-5.13C162.53,94.25,161.69,96.74,164.38,97Z"/><path d="M165.14,121.24h2.63c-1.54,1.94-2.28,3.66-.72,5.3a3.62,3.62,0,0,1-3,.5l.19.16c-.51-1.84-3.08-1.08-3.61-3,.77-2,3.5-1.39,4.62-3.06Z"/><path d="M166.91,143.65c.7,1.34-.74,1.34-1,2,0,.83,1.29,1.15.73,2.26a13.1,13.1,0,0,1-5.81-.15,8.32,8.32,0,0,1-.39-1.4,2.36,2.36,0,0,1,1-2.14c.92-1,1.84.09,2.74,0A23.23,23.23,0,0,0,166.91,143.65ZM163,145.75l-.31-.22,0,.35Z"/><path d="M165.29,121.12c-4.71-1.42-5.06-1.91-3.93-5.86,1.17,1.19.38,3.63,2.6,3.76s2-2.28,3.06-3.89c1.89,3.26-.79,4.4-1.88,6.1Z"/><path d="M166.88,109.48c-.21,1.59-1.94,1.16-1.93,2.45-.18,1.2,1.63,1,1.62,2.16a9.43,9.43,0,0,1-5.3-.06c-.11-1.41,1.72-.63,1.83-1.74.52-1.85-2.33-1.06-2.13-2.76A12.49,12.49,0,0,1,166.88,109.48Z"/><path d="M166.21,134.11l1.71,2c-.5,2.68-1.69,4.49-5.19,3.83-1.2-1.14-3-2.16-1.89-4.58,2,0,.62,2.08,1.54,2.35a3,3,0,0,0,3.07.39c1.24-1.14.87-2.66.88-4.09Z"/><path d="M161,107.35c2-1.35,4-1.32,7-.27C165.1,108.68,163,108.07,161,107.35Z"/><path class="cls-1" d="M137.23,39.17c3.85,1.86,8.13,1.26,12.18,2.07,10.31,2.06,20.35,4.81,29.71,9.72A18.81,18.81,0,0,1,184,54.28c0,.84,0,2,0,3.13,0,22.17.25,44.33-.09,66.49-.26,16.62-3.59,32.73-10.95,47.75-10,20.37-26.82,32.47-48.09,39.17-25.48-8.05-43.59-23.75-52.36-49.36A117.3,117.3,0,0,1,66,123.81c-.09-22.16,0-44.33,0-66.5a7.25,7.25,0,0,1,.55-3.79c7-5,15.38-7.77,23.88-10A84.89,84.89,0,0,1,109,40.22a4.47,4.47,0,0,0,3.24-1ZM70.12,56v6.21c0,19.49.08,39,0,58.48A123.57,123.57,0,0,0,75.27,156c7,24.12,22.6,40.16,46.22,48.54a8.31,8.31,0,0,0,5.82.39c16.08-5.79,29.8-14.74,38.77-29.73a93.86,93.86,0,0,0,13.12-46c.67-23.47.24-47,.26-70.47a26.19,26.19,0,0,0-.43-3.06C142.88,40,106.79,40,70.12,56Z"/><path class="cls-1" d="M138,80.12a5.42,5.42,0,0,0-2.66-4.55c-1.2-.89-2.46-1.7-3.64-2.63-4.41-3.45-5.21-4.82-7.1-11.91a2,2,0,0,0-2.23.87V88.32c-3.08,1.2-5.79.69-9,.49V61.7c-1.53-1.21-2.74-.87-3.86-1a6.18,6.18,0,0,1-3.18-.58c-1.31-2.15-.53-4.53-.36-6.8,5.91-1.49,20.8-1.09,23.72.53,6.41-2.47,10.1-2.3,15.18.76.48,2.31-.23,4.47-1,6.64-3.19,0-6.36-3.38-9.47.54,1.84,5,7.51,5.54,10.54,10,.62-3.6.9-6.25,1.54-8.81,2.47-9.88,11.51-13.74,20.7-8.75.07,2.35.23,4.79-.86,7.49-2.41-.9-4.62-2.34-7.58-1.41a6,6,0,0,0-2.9,4,27.28,27.28,0,0,0-.27,12.35A6.26,6.26,0,0,0,161.15,82l5.48-1.64a11.35,11.35,0,0,1,1.32,6.73c-8.14,4.62-13.08,3.53-20.86-4.46C141.9,90,136,91.36,125.64,87.21a9.64,9.64,0,0,1,.79-7.16C130.26,80,134.11,84,138,80.12Z"/><path class="cls-1" d="M82.4,89l9.34-36.22c3.33-.56,6.44-.31,10.14-.21,3.77,11.39,5.86,23.25,9.26,35.05-2.62.49-4.88,1-7.15,1.32a7.64,7.64,0,0,1-2-.22c-1-2.22-.5-4.8-2.34-6.85a12.51,12.51,0,0,0-6-.08c-2.86,1.84.08,7.41-5.72,7.49,11.64,14.42,25.26,26,39.09,37.56a121.81,121.81,0,0,1-5.18,12.87c-4.59,1.59-9.23,1.35-14.15,1.42-11-18-20.44-36.71-29.6-56.61,2.4,1.64,2.29,3.89,4,4.84a4.47,4.47,0,0,0,.67,2.34c6.87,14,14.13,27.76,22.28,41,1.28,2.08,2.14,4.52,4.46,6l10.41-.66a51.7,51.7,0,0,0,4.39-11A288.94,288.94,0,0,1,86,89ZM97.09,64.74c-1.45,3.65-2.36,6.33-2.15,9.25,1.37.34,2.5.64,3.37-.5C98.6,70.75,97.09,68.38,97.09,64.74Z"/><path class="cls-1" d="M76.1,96.1c2.27,1.5,1.94,3.76,2.5,5.54,4.34,13.89,8.87,27.74,11.85,42,.88,4.21,1.59,8.47,2.54,12.66,3.13,13.77,16.35,24.63,30.45,25.12,4.85.17,9.59-.11,14.18-2.05,9.73-4.11,15-11.77,17.23-21.71,2.27-10.29,1.23-20.17-5-29.05a31.78,31.78,0,0,0-10.46-9.79c-11.44-6.42-22.2-13.89-32.87-21.49a3.71,3.71,0,0,1-1.69-2.45l14,9.68c6.83,4.72,14,8.95,21.05,13.25,11.06,6.71,16.75,16.68,17.15,29.61.29,9.26-1.85,17.86-8,25-10.51,12.28-27.38,13.81-41.22,5.56-9.85-5.86-15.46-14.81-17.25-26.1-2.5-15.75-7.37-30.87-12-46.06C77.7,102.75,76.37,99.72,76.1,96.1Z"/><path class="cls-1" d="M123.14,145.76c4.63-1.61,8.87-1.23,13-2.33,3.48,3.19,5.84,7.21,9,11l-5,12.31c-4.24,2.17-9,.79-13,2.64a64.17,64.17,0,0,1-9-11.26C119.27,153.66,121.3,149.71,123.14,145.76Zm1.26,1.6c-1.6,3.68-3.38,7-4.29,10.89,2.75,2.76,4.28,6.39,7.57,8.81,3.59-1.31,7.64,0,11.31-2.31,1.14-3.26,3-6.41,3.79-10.15a72.51,72.51,0,0,0-6.62-8.53C132.18,145.6,128.49,146.54,124.4,147.36Z"/><path class="cls-1" d="M107.15,187c1.68-.06.73-2.69,2.6-2.58s1,2.16,1.73,3.12c4.79-2,9.55.38,14.35.1,3.84-.22,4.51.9,4.18,5.38-3,3.34-6.58,1.2-9.59,1.41-1.72-1.78-.41-3.68-1.33-5.13-1.76-1.68-2.87-.87-3.63.61-.47,2.38,2.28,1.91,2.49,3.67-2.84,1.21-3.59-1.6-5.21-2.64-.56.29-.85,1.06-1.81.9s-.87-1.6-1.77-2.18c-2.83,1.63-4.39.37-5.15-2.36-1-.95-2.34-.05-3.22-.53l-.46-1.69-.18.12c1.74.29,2.63-.66,3.17-2.14l-.22.18c1.17,0,2-1.17,3.39-.76,1.33,1.33.24,3.14.79,4.64-.38.37-1,.64-.37,1.57Zm20.48,2.4c-1.43,1.4-1.43,1.4-.23,3.47a1.41,1.41,0,0,0,1-1.37A2.16,2.16,0,0,0,127.63,189.44Zm-6.22.62c1.06-.24,1.76.88,2.57-.65A2.12,2.12,0,0,0,121.41,190.06Zm2.46,2.34c-.69,0-1.57-.83-2.15.39C122.52,193.27,123.23,193.53,123.87,192.4Zm-19.1-7c-.1.08-.27.16-.28.26s.14.2.22.3c.1-.08.27-.16.28-.26S104.85,185.47,104.77,185.37Z"/><path class="cls-1" d="M152.19,180.2c.23-1.35-2.14-1.7-1.29-3.36,2-.25,2.48,2,3.86,2.26,1.19.73,1.8-1.2,2.85-.31.64,1.37-2.43,3.94-6.15,5.17-.91.59-.05,2-1.35,2.57-1.81-.72-1.09-3.24-2.84-4.27-2.66,2.05,1.62,3.6.27,5.66-2-.15-1.85-3.06-4-3.24-.52,1.55,1.28,3,1,3.56-1,2.29-2,3.08-3.27,3.49-2.34-.21-3.18-2.18-4.39-3.81-1.44,1.66,1.55,3.51-.68,5.1-1.7-1.48-1.16-4.45-4.08-5.81,6.5-1.27,11.65-4.14,16.89-7.9.92-.32,1.91,1.44,3.32.82,0,.48,0,1.09.75.51Zm-12.39,6c-1.05,2-.24,3,1.53,4C142.94,187.78,142.47,186.64,139.8,186.15Z"/><path class="cls-1" d="M100.33,185.12c-.83-.43-2,.21-2,.15-1.51-2.47.38-3.64-.14-5.09l.24-.2-.14.3-2.8.68c-4.2-2.48-4.6-3-5.18-7.42-.38-1.06-1.69-1-2.34-1.95,2.06-1.88,4.46-1.25,6.64-1.16.75.93.4,1.77.48,2.56a.9.9,0,0,0-.79,1.21c-.74-.06-1,.32-1,1-.34.11-1.18-.13-.48.69l.36-.81c.71.05,1.1-.22,1-1,.69.17,1.06-.14,1.19-.81,1.82-.06,2.74,1.29,3.31,2.59s1.58,1.51,2.2,2.29c.61,1.27-.95,2.17-.4,3.42,1.22.49,1.92-1.05,3.23-.72,1.18,1-.7,1.5-.63,2.37l.22-.18c-1.43.17-2.76.48-3.17,2.14ZM94,178.39c2.07,1.14,2.79.18,3.09-1.46,0-.21-.32-.5-.49-.76C95.38,176.12,94.64,176.77,94,178.39Z"/><path class="cls-1" d="M144.33,138c4.32.48,4.32.48,7.11-.65,0,3.48-.41,3.61-7.87,2.5a89,89,0,0,1-8.17-13.92c-1.74-3.83-4.24-5.72-8.27-6-.76,0-1.72,0-2-1,5.74-1,8.9.56,11.33,5.14S141.65,133.27,144.33,138Z"/><path class="cls-1" d="M106.13,168.63c-1.43,1-2.4,1.71-3.67.22,3.07-2.63,1.94-6.46,2.89-9.76-2.05-3.91-3.38-7.93-6.43-11.21s-3.48-7.57-1.3-12.21c.78,1.82.47,3.29.44,4.7a8.81,8.81,0,0,0,2.81,7.12c3,2.78,4.42,6.64,5.76,10.29C107.9,161.23,106.23,164.94,106.13,168.63Z"/><path class="cls-1" d="M161.13,158c.28,1.8-.88,4.06,1.06,5,2.73.68,2.75-1.84,4.3-2.81.72,3-1.51,4-2.91,5.43l1,2.17a3.81,3.81,0,0,1-3.53,3.57c.74,1.92.81,3.48-1,4.55-1.05-.8,0-1.57-.25-2.33-1.26-.89-2.37,1.36-3.69.17-1.51-1.2-1.33-1.92,1.21-4.61l-.67,2.67c1.41.76,1.84-.23,2.4-1.08a2.73,2.73,0,0,0-1.84-1.5c0-2.29.49-4.31,3.23-5.21-1.69-2.43-1.17-4.29.83-5.81Zm-2,8.62c1.19,3.28,1.19,3.28,4,1.39C162.35,166.45,161.3,165.66,159.13,166.6Z"/><path class="cls-1" d="M161.28,158.15c-1.4-2.78-.77-5.6-.54-8.41,1.73-.09,1,1.66,2.14,2l.8-1.73c1.43-.37,1.08,1.35,1.83,1.67,1.28-.15.39-1.92,1.7-2,1.09.67.67,1.67.53,2.57-1.28,1.82-3.52.61-4.93,1.59-1,.91-.63,1.86-.54,2.61a2.62,2.62,0,0,0,3,.75c1.49-.08.52-2.45,2.39-2.73.44,2.11-.65,3.24-1.75,4.28a4.36,4.36,0,0,1-4.76-.76Z"/><path class="cls-1" d="M153.8,146c-.15,2.84-2.63,4.8-3.08,7.51-.36,3,1.85,5.91.08,9.31-2-3.07-1.06-6.45-2.52-9.31l4.46-8.08Z"/><path class="cls-1" d="M160.77,104.84a2.07,2.07,0,0,1,1.06-2c.44-.39,1.19-.52,1.15-1.33l-2.12-1c.3-1.63,2.61-1.76,6.49-.48.44,1.59-1.3,1.63-1.86,2.62l1.77,2.06A16.39,16.39,0,0,1,160.77,104.84Z"/><path class="cls-1" d="M123.37,174.45c1.07.93,2.34,2,3.54,3.12.43.41,1.08.79.82,1.92-2.37-.07-3.37-2.42-5.42-3.34-2.9-.18-5.89,1.82-9.07.59C115.13,175.23,118.46,174.46,123.37,174.45Z"/><path class="cls-1" d="M164.09,127c1.12,1.34,3.48,1.39,3.72,3.64.24,1.48-1.3,2.16-1.6,3.42l.13-.13c-1.44.09-2.89.38-4.24-.15a3.19,3.19,0,0,1-1.59-3.69c.67-1.83,2.41-2.12,3.77-2.93Zm-1.88,4.63c1.52,1.17,2.8.94,4.13-.38C163.74,128.83,163.74,128.83,162.21,131.67Z"/><path class="cls-1" d="M149.12,166.56c-1.79,2.53-4.41,2.56-6.32,4.16-1.67,1.7-2.25,4.51-4.57,6.19C138.2,171.48,142,167.81,149.12,166.56Z"/><path class="cls-1" d="M164.38,97A2.23,2.23,0,0,0,166.2,95c-.59-1.54-1.77.4-2.53-.57a1.23,1.23,0,0,1,.66-1.92,2.38,2.38,0,0,1,3.44,1.79c-1.25,3.56-2.63,4.69-5,3.74-2.09-.85-2.94-2.4-1.66-5.13C162.53,94.25,161.69,96.74,164.38,97Z"/><path class="cls-1" d="M165.14,121.24h2.63c-1.54,1.94-2.28,3.66-.72,5.3a3.62,3.62,0,0,1-3,.5l.19.16c-.51-1.84-3.08-1.08-3.61-3,.77-2,3.5-1.39,4.62-3.06Z"/><path class="cls-1" d="M166.91,143.65c.7,1.34-.74,1.34-1,2,0,.83,1.29,1.15.73,2.26a13.1,13.1,0,0,1-5.81-.15,8.32,8.32,0,0,1-.39-1.4,2.36,2.36,0,0,1,1-2.14c.92-1,1.84.09,2.74,0A23.23,23.23,0,0,0,166.91,143.65ZM163,145.75l-.31-.22,0,.35Z"/><path class="cls-1" d="M165.29,121.12c-4.71-1.42-5.06-1.91-3.93-5.86,1.17,1.19.38,3.63,2.6,3.76s2-2.28,3.06-3.89c1.89,3.26-.79,4.4-1.88,6.1Z"/><path class="cls-1" d="M166.88,109.48c-.21,1.59-1.94,1.16-1.93,2.45-.18,1.2,1.63,1,1.62,2.16a9.43,9.43,0,0,1-5.3-.06c-.11-1.41,1.72-.63,1.83-1.74.52-1.85-2.33-1.06-2.13-2.76A12.49,12.49,0,0,1,166.88,109.48Z"/><path class="cls-1" d="M166.21,134.11l1.71,2c-.5,2.68-1.69,4.49-5.19,3.83-1.2-1.14-3-2.16-1.89-4.58,2,0,.62,2.08,1.54,2.35a3,3,0,0,0,3.07.39c1.24-1.14.87-2.66.88-4.09Z"/><path class="cls-1" d="M161,107.35c2-1.35,4-1.32,7-.27C165.1,108.68,163,108.07,161,107.35Z"/></svg>