<svg id="Flattened" xmlns="http://www.w3.org/2000/svg" viewBox="0 0 1550 1550"><defs><style>.cls-1{fill:#fff;}</style></defs><title>Artboard 1</title><g id="logo_Image" data-name="logo Image"><path d="M22,932c2-9.72,4.22-19.4,6.06-29.15q17.2-91.48,34.28-183a20.57,20.57,0,0,1,1-2.74H79.15c15.83,0,31.66-.06,47.49.1,1.59,0,4.13,1,4.62,2.24,11.37,27.87,22.75,55.73,33.54,83.83,2.52,6.55,2.88,13.93,4.22,20.93a6.69,6.69,0,0,0,1.5,3.64c.36-3.36.15-6.91,1.16-10.06,4.81-15,9.5-30.07,15.08-44.8,6.66-17.57,14.12-34.84,21.4-52.17.63-1.5,2.48-3.53,3.78-3.54,21.65-.22,43.29-.16,65.47-.16l40.08,215.36H246.55L229.26,822.67c-5,35.07-22.06,69.93-33.23,106.61-1.06,3.49-2.76,4.56-6.35,4.5-13.33-.22-26.66-.15-40,0-2.65,0-4.22-.52-5.15-3.33-9.85-29.67-20-59.23-29.65-89-2.23-6.87-2.81-14.27-4.39-21.47-2.16,38-11.13,74.93-16.88,113H22Z"/><path d="M440,940c-10.13-1.67-20.34-2.94-30.37-5.09a129.61,129.61,0,0,1-42.25-17.39c-29-18.37-46.92-43.92-49.77-78.77-2.66-32.48,4-62.29,26.52-87.15,16.79-18.55,37.5-31.15,61.7-36.82,40-9.37,79.74-8.3,117.85,8.39C554.9,736.85,578.53,759,586.61,793,603,861.69,567.43,916.53,503.26,934.8c-8.25,2.35-16.83,3.5-25.26,5.2Zm10.59-168.26c-4,.68-12,1.42-19.67,3.47-23.22,6.21-36.43,22.27-38.57,45.94-1.89,20.92,9.39,39.75,30.24,49.53,18.26,8.56,37.25,9.49,56.47,3.65,18.05-5.49,30.63-16.83,34.78-35.68,4.27-19.38.26-36.81-14.8-50.63C486.5,776.51,471.27,772,450.59,771.74Z"/><path d="M1528,907c-1.09,2.75-2,5.61-3.32,8.24-7,13.75-17.86,21.63-33.71,21.63H1237.51a36.15,36.15,0,0,1-36.38-36.48q0-76.24,0-152.48c0-20.41,15.4-36.7,36.06-37,34.16-.41,68.32-.15,102.48-.17h7c-1.88-2.07-2.88-3.27-4-4.37-11.89-11.91-24-23.64-35.56-35.84a22.18,22.18,0,0,1-5.06-10.8c-.87-4.65,2-8.28,6.19-10.47a11.37,11.37,0,0,1,12.3.56,34.22,34.22,0,0,1,4.94,4.18q17.54,17.45,35,35c1.16,1.16,2.38,2.28,5.15,4.93,1-1.79,1.55-3.73,2.8-5q35.43-35.62,71-71.07c2.91-2.89,6.31-5.28,9.48-7.91h7c2.39,2,5.32,3.58,7,6,3.7,5.28,2.31,11.16-3.44,16.92q-36.52,36.57-73.14,73c-1.22,1.21-3.24,1.62-4.9,2.4l1.82,2.39H1485c23.5,0,34.23,7.48,42.31,29.47.11.29.42.49.64.74Zm-194.39,6.22c20.71-1,41.71-1.45,62.56-3.34,24.21-2.2,37.12-14,40.66-36.82a324.09,324.09,0,0,0,0-98.52c-2-13.27-7.49-25.19-20.75-31-6.16-2.7-13-5-19.59-5.39-22.08-1.33-44.22-2.29-66.33-2.31-20.11,0-40.29.65-60.33,2.33-24,2-37.4,14.31-40.84,36.64a320.42,320.42,0,0,0,0,98.49c2.62,16.85,11.26,29.43,28.76,34,4.17,1.1,8.42,2.35,12.68,2.61C1291.42,911.22,1312.36,912.16,1333.61,913.22ZM1484.37,823A19.92,19.92,0,1,0,1504,843.35,20.16,20.16,0,0,0,1484.37,823Zm-.24-50.34a19.81,19.81,0,1,0,19.91,20A20,20,0,0,0,1484.12,772.68Z"/><path d="M859,717.31V932.52H788.5V720.39l-1.1-.25c-.79,1.86-1.66,3.7-2.37,5.59Q747,827.39,709.12,929.1c-1.34,3.61-3,4.74-6.79,4.69-14.5-.22-29-.17-43.5,0-3.14,0-4.65-.91-5.78-3.95Q614.31,825.5,575.37,721.24c-.45-1.21-.73-2.49-1.19-4.11,21.83,0,43.3,0,64.77.11a4.85,4.85,0,0,1,3.46,2.61c11.28,27.91,22.69,55.77,33.4,83.9,2.91,7.65,3.59,16.14,5.26,24.06.14-.43.49-1.35.71-2.3,2.45-10.48,3.76-21.39,7.53-31.38,9.75-25.82,20.58-51.22,31-76.83Z"/><path d="M1034.61,775H943.93v23.84h84.61V853H944V876.4h90.73v56.12H873.28V717.41h161.33Z"/><path d="M1122.42,932.93c-12.65.07-24.2-3-34.57-10.12-20.2-13.89-21.3-41.3-2.27-56.76,20.88-17,56.38-15.84,76.21,2.41,14.81,13.63,14.49,37.82-.81,50.93C1149.87,928.91,1136.78,933,1122.42,932.93Z"/><path d="M1412.26,779.76l-44.63,89.51L1324.22,782l-1.11.24v19.53H1303.7v66.92h-29.47V801.95h-19.58V779.12h6c19,0,38-.07,57,0,10.15.05,20.29.35,30.43.67,1.32,0,3.31.51,3.82,1.43,5.57,10,10.91,20.1,15.76,29.15,4.32-8.13,9.44-17.51,14.28-27,1.42-2.79,3.2-3.74,6.24-3.67C1395.94,779.87,1403.7,779.76,1412.26,779.76Z"/><path class="cls-1" d="M22,932c2-9.72,4.22-19.4,6.06-29.15q17.2-91.48,34.28-183a20.57,20.57,0,0,1,1-2.74H79.15c15.83,0,31.66-.06,47.49.1,1.59,0,4.13,1,4.62,2.24,11.37,27.87,22.75,55.73,33.54,83.83,2.52,6.55,2.88,13.93,4.22,20.93a6.69,6.69,0,0,0,1.5,3.64c.36-3.36.15-6.91,1.16-10.06,4.81-15,9.5-30.07,15.08-44.8,6.66-17.57,14.12-34.84,21.4-52.17.63-1.5,2.48-3.53,3.78-3.54,21.65-.22,43.29-.16,65.47-.16l40.08,215.36H246.55L229.26,822.67c-5,35.07-22.06,69.93-33.23,106.61-1.06,3.49-2.76,4.56-6.35,4.5-13.33-.22-26.66-.15-40,0-2.65,0-4.22-.52-5.15-3.33-9.85-29.67-20-59.23-29.65-89-2.23-6.87-2.81-14.27-4.39-21.47-2.16,38-11.13,74.93-16.88,113H22Z"/><path class="cls-1" d="M440,940c-10.13-1.67-20.34-2.94-30.37-5.09a129.61,129.61,0,0,1-42.25-17.39c-29-18.37-46.92-43.92-49.77-78.77-2.66-32.48,4-62.29,26.52-87.15,16.79-18.55,37.5-31.15,61.7-36.82,40-9.37,79.74-8.3,117.85,8.39C554.9,736.85,578.53,759,586.61,793,603,861.69,567.43,916.53,503.26,934.8c-8.25,2.35-16.83,3.5-25.26,5.2Zm10.59-168.26c-4,.68-12,1.42-19.67,3.47-23.22,6.21-36.43,22.27-38.57,45.94-1.89,20.92,9.39,39.75,30.24,49.53,18.26,8.56,37.25,9.49,56.47,3.65,18.05-5.49,30.63-16.83,34.78-35.68,4.27-19.38.26-36.81-14.8-50.63C486.5,776.51,471.27,772,450.59,771.74Z"/><path class="cls-1" d="M1528,907c-1.09,2.75-2,5.61-3.32,8.24-7,13.75-17.86,21.63-33.71,21.63H1237.51a36.15,36.15,0,0,1-36.38-36.48q0-76.24,0-152.48c0-20.41,15.4-36.7,36.06-37,34.16-.41,68.32-.15,102.48-.17h7c-1.88-2.07-2.88-3.27-4-4.37-11.89-11.91-24-23.64-35.56-35.84a22.18,22.18,0,0,1-5.06-10.8c-.87-4.65,2-8.28,6.19-10.47a11.37,11.37,0,0,1,12.3.56,34.22,34.22,0,0,1,4.94,4.18q17.54,17.45,35,35c1.16,1.16,2.38,2.28,5.15,4.93,1-1.79,1.55-3.73,2.8-5q35.43-35.62,71-71.07c2.91-2.89,6.31-5.28,9.48-7.91h7c2.39,2,5.32,3.58,7,6,3.7,5.28,2.31,11.16-3.44,16.92q-36.52,36.57-73.14,73c-1.22,1.21-3.24,1.62-4.9,2.4l1.82,2.39H1485c23.5,0,34.23,7.48,42.31,29.47.11.29.42.49.64.74Zm-194.39,6.22c20.71-1,41.71-1.45,62.56-3.34,24.21-2.2,37.12-14,40.66-36.82a324.09,324.09,0,0,0,0-98.52c-2-13.27-7.49-25.19-20.75-31-6.16-2.7-13-5-19.59-5.39-22.08-1.33-44.22-2.29-66.33-2.31-20.11,0-40.29.65-60.33,2.33-24,2-37.4,14.31-40.84,36.64a320.42,320.42,0,0,0,0,98.49c2.62,16.85,11.26,29.43,28.76,34,4.17,1.1,8.42,2.35,12.68,2.61C1291.42,911.22,1312.36,912.16,1333.61,913.22ZM1484.37,823A19.92,19.92,0,1,0,1504,843.35,20.16,20.16,0,0,0,1484.37,823Zm-.24-50.34a19.81,19.81,0,1,0,19.91,20A20,20,0,0,0,1484.12,772.68Z"/><path class="cls-1" d="M859,717.31V932.52H788.5V720.39l-1.1-.25c-.79,1.86-1.66,3.7-2.37,5.59Q747,827.39,709.12,929.1c-1.34,3.61-3,4.74-6.79,4.69-14.5-.22-29-.17-43.5,0-3.14,0-4.65-.91-5.78-3.95Q614.31,825.5,575.37,721.24c-.45-1.21-.73-2.49-1.19-4.11,21.83,0,43.3,0,64.77.11a4.85,4.85,0,0,1,3.46,2.61c11.28,27.91,22.69,55.77,33.4,83.9,2.91,7.65,3.59,16.14,5.26,24.06.14-.43.49-1.35.71-2.3,2.45-10.48,3.76-21.39,7.53-31.38,9.75-25.82,20.58-51.22,31-76.83Z"/><path class="cls-1" d="M1034.61,775H943.93v23.84h84.61V853H944V876.4h90.73v56.12H873.28V717.41h161.33Z"/><path class="cls-1" d="M1122.42,932.93c-12.65.07-24.2-3-34.57-10.12-20.2-13.89-21.3-41.3-2.27-56.76,20.88-17,56.38-15.84,76.21,2.41,14.81,13.63,14.49,37.82-.81,50.93C1149.87,928.91,1136.78,933,1122.42,932.93Z"/><path class="cls-1" d="M1412.26,779.76l-44.63,89.51L1324.22,782l-1.11.24v19.53H1303.7v66.92h-29.47V801.95h-19.58V779.12h6c19,0,38-.07,57,0,10.15.05,20.29.35,30.43.67,1.32,0,3.31.51,3.82,1.43,5.57,10,10.91,20.1,15.76,29.15,4.32-8.13,9.44-17.51,14.28-27,1.42-2.79,3.2-3.74,6.24-3.67C1395.94,779.87,1403.7,779.76,1412.26,779.76Z"/></g></svg>