<svg id="Layer_1" data-name="Layer 1" xmlns="http://www.w3.org/2000/svg" viewBox="0 0 649 649"><defs><style>.cls-1{fill:#fff;}</style></defs><title>Artboard 1</title><path d="M3.7,383.46C0,383.21-.08,381,.55,378.19c4-17.87,7.89-35.75,11.84-53.62Q18.26,298,24.17,271.45c1.41-6.38,2.87-6.94,7.76-2.79C44.11,279,56.3,289.37,68.37,299.86c2.28,2,4.13,2.42,7.1,1.4Q126,283.94,176.61,267c2-.67,4.36-.32,6.55-.44,0,2,.47,4.19,0,6.14q-11.41,52.18-23,104.31c-1.34,6-3.09,6.61-7.9,2.51-11.78-10.06-23.62-20.06-35.27-30.27-2.59-2.27-4.67-2.66-8-1.53-33.82,11.62-67.71,23-101.58,34.52C6.21,382.67,4.94,383.06,3.7,383.46Zm104.35-41.74C95.69,331.15,83.89,321,71.88,311c-1.12-.92-3.76-.71-5.42-.17-15,4.93-29.89,10.14-44.89,15-2.86.93-3.86,2.51-4.43,5.18-2.65,12.52-5.46,25-8.2,37.51-.48,2.17-.92,4.34-1.55,7.34Zm68.87-68.5L77,307.13c12.43,10.63,24.12,20.73,36,30.59,1.14.95,3.73.9,5.35.38,10.91-3.51,21.51-8.31,32.65-10.69,12.16-2.61,17.6-8.9,18.93-21.09C171.12,295.54,174.35,285,176.92,273.22Zm-157.3,47,45.24-15.38-35.2-30Zm135.18,53.4,9.81-44.64L120.21,344Z"/><path d="M467.88,378.67c3.49-15.92,6.88-31.51,10.32-47.08,4.52-20.46,9.18-40.9,13.51-61.4.76-3.59,2.17-4.76,5.62-4.38a64.91,64.91,0,0,0,7,0c13.36,0,20.08,6,21.06,19.28.69,9.33-1,18.43-6.42,26.17-2.91,4.17-7.23,7.36-10.93,11,8.76,8.75,9.94,24.83,2.38,40.23C503.09,377.5,491.75,381.89,467.88,378.67Zm6.7-4.65c4.4,0,7.88-.17,11.35,0a16.13,16.13,0,0,0,14.32-6.63,40,40,0,0,0,8-33.3c-1.2-6.28-4.95-9.34-11.28-10.21-10.94-1.5-11-1.51-13.36,9.15C480.62,346.5,477.68,359.95,474.58,374ZM487,318.2c4.28,0,7.92-.16,11.54,0,5.7.31,10.07-2.12,13.24-6.53a39.32,39.32,0,0,0,7.29-29.19c-.88-6.38-5.42-10.77-11.48-11.35-3.27-.31-6.59-.06-10.17-.06Z"/><path d="M345.86,378.66c2.91-13.3,5.77-26.43,8.65-39.55,4.93-22.42,10-44.81,14.7-67.28.94-4.48,2.37-6.85,7.36-6,2.6.42,5.32.07,8,.08,10.13,0,16.93,4.48,18.89,14.26,3.27,16.27-.26,31.15-12.25,43.21-2.73,2.74-6.57,4.39-10.66,7l6.35,48.56-5.76.27-6-48.91H362.31c-3.35,15-6.82,29.88-9.91,44.85C351.63,378.89,350.08,379.91,345.86,378.66Zm17.66-54.25c11.5,1.4,21.36.75,27.78-9.44,6.3-10,8-21,6.6-32.55-.76-6.18-4.76-10.67-9.79-11.19-4.21-.43-8.5-.09-12.75-.09Z"/><path d="M401.59,378.61c6.29-15.5,12.45-30.73,18.65-45.94,8.53-20.92,17.23-41.77,25.54-62.77,1.69-4.28,4-5.13,8.42-3.74l-3.86,112.69-4.89.39v-30.3c-8.05,0-16.45-.1-24.83.15-.86,0-1.94,2-2.46,3.21-3.1,7.53-6.3,15-9,22.71C407.86,378.82,405.94,380.08,401.59,378.61Zm20-35.09c7.66,0,14.29-.13,20.92.06,3.09.09,4-1.14,4.1-4.06.17-7.65.57-15.29.88-22.93q.79-19.59,1.59-39.17l-.88-.22Z"/><path d="M246.09,378.63l33.44-82.12q5.36-13.17,10.74-26.33c2-5,2.07-5,8.42-4.1l-3.82,112.76h-5.09v-30c-7.83,0-15.78-.15-23.7.16-1.22,0-2.85,2-3.44,3.38-3.17,7.5-6.29,15-9,22.73C252.3,379,250.19,380,246.09,378.63ZM291,343.21l2.62-64.93-1.21-.21-26,65.14Z"/><path d="M213.6,330l-10.85,48.9-5.73.25c2.82-13,5.49-25.4,8.24-37.82,5.23-23.7,10.59-47.38,15.67-71.11.75-3.49,2-4.79,5.57-4.45,3.14.3,6.32.06,9.48.06,10.37,0,17.18,5.17,18.91,15.41,2.35,13.88-.35,26.9-9,38.22-5.34,7-12.57,10.71-21.57,10.55C220.85,330,217.38,330,213.6,330Zm13-59-11.8,53.35c11.58,1.5,21.52.58,27.87-9.91A46.85,46.85,0,0,0,249,282.9c-1-6.83-5.35-11.38-11-11.8C234.34,270.84,230.69,271.05,226.61,271.05Z"/><path d="M617.58,271.09l-10.38,47H636l-1.14,5.47c-8.27,0-16.4.15-24.51-.07-3.52-.1-4.82,1.08-5.54,4.58-3.12,15.13-6.62,30.18-10.12,45.84h30.05l-.86,5H588c2.41-10.93,4.75-21.58,7.1-32.24,5.63-25.5,11.34-51,16.82-76.51.69-3.2,1.72-4.45,5.12-4.38,10.46.21,20.92.08,31.71.08l-1,5.23Z"/><path d="M539.29,374h29.28l1.17,1.23c-1.21,1.33-2.39,3.78-3.64,3.81-11,.3-21.92.18-33.64.18L557.4,265.94h5.73Z"/><path d="M337.35,265.8h5.74L318.17,378.92h-5.73Z"/><path class="cls-1" d="M3.7,383.46C0,383.21-.08,381,.55,378.19c4-17.87,7.89-35.75,11.84-53.62Q18.26,298,24.17,271.45c1.41-6.38,2.87-6.94,7.76-2.79C44.11,279,56.3,289.37,68.37,299.86c2.28,2,4.13,2.42,7.1,1.4Q126,283.94,176.61,267c2-.67,4.36-.32,6.55-.44,0,2,.47,4.19,0,6.14q-11.41,52.18-23,104.31c-1.34,6-3.09,6.61-7.9,2.51-11.78-10.06-23.62-20.06-35.27-30.27-2.59-2.27-4.67-2.66-8-1.53-33.82,11.62-67.71,23-101.58,34.52C6.21,382.67,4.94,383.06,3.7,383.46Zm104.35-41.74C95.69,331.15,83.89,321,71.88,311c-1.12-.92-3.76-.71-5.42-.17-15,4.93-29.89,10.14-44.89,15-2.86.93-3.86,2.51-4.43,5.18-2.65,12.52-5.46,25-8.2,37.51-.48,2.17-.92,4.34-1.55,7.34Zm68.87-68.5L77,307.13c12.43,10.63,24.12,20.73,36,30.59,1.14.95,3.73.9,5.35.38,10.91-3.51,21.51-8.31,32.65-10.69,12.16-2.61,17.6-8.9,18.93-21.09C171.12,295.54,174.35,285,176.92,273.22Zm-157.3,47,45.24-15.38-35.2-30Zm135.18,53.4,9.81-44.64L120.21,344Z"/><path class="cls-1" d="M467.88,378.67c3.49-15.92,6.88-31.51,10.32-47.08,4.52-20.46,9.18-40.9,13.51-61.4.76-3.59,2.17-4.76,5.62-4.38a64.91,64.91,0,0,0,7,0c13.36,0,20.08,6,21.06,19.28.69,9.33-1,18.43-6.42,26.17-2.91,4.17-7.23,7.36-10.93,11,8.76,8.75,9.94,24.83,2.38,40.23C503.09,377.5,491.75,381.89,467.88,378.67Zm6.7-4.65c4.4,0,7.88-.17,11.35,0a16.13,16.13,0,0,0,14.32-6.63,40,40,0,0,0,8-33.3c-1.2-6.28-4.95-9.34-11.28-10.21-10.94-1.5-11-1.51-13.36,9.15C480.62,346.5,477.68,359.95,474.58,374ZM487,318.2c4.28,0,7.92-.16,11.54,0,5.7.31,10.07-2.12,13.24-6.53a39.32,39.32,0,0,0,7.29-29.19c-.88-6.38-5.42-10.77-11.48-11.35-3.27-.31-6.59-.06-10.17-.06Z"/><path class="cls-1" d="M345.86,378.66c2.91-13.3,5.77-26.43,8.65-39.55,4.93-22.42,10-44.81,14.7-67.28.94-4.48,2.37-6.85,7.36-6,2.6.42,5.32.07,8,.08,10.13,0,16.93,4.48,18.89,14.26,3.27,16.27-.26,31.15-12.25,43.21-2.73,2.74-6.57,4.39-10.66,7l6.35,48.56-5.76.27-6-48.91H362.31c-3.35,15-6.82,29.88-9.91,44.85C351.63,378.89,350.08,379.91,345.86,378.66Zm17.66-54.25c11.5,1.4,21.36.75,27.78-9.44,6.3-10,8-21,6.6-32.55-.76-6.18-4.76-10.67-9.79-11.19-4.21-.43-8.5-.09-12.75-.09Z"/><path class="cls-1" d="M401.59,378.61c6.29-15.5,12.45-30.73,18.65-45.94,8.53-20.92,17.23-41.77,25.54-62.77,1.69-4.28,4-5.13,8.42-3.74l-3.86,112.69-4.89.39v-30.3c-8.05,0-16.45-.1-24.83.15-.86,0-1.94,2-2.46,3.21-3.1,7.53-6.3,15-9,22.71C407.86,378.82,405.94,380.08,401.59,378.61Zm20-35.09c7.66,0,14.29-.13,20.92.06,3.09.09,4-1.14,4.1-4.06.17-7.65.57-15.29.88-22.93q.79-19.59,1.59-39.17l-.88-.22Z"/><path class="cls-1" d="M246.09,378.63l33.44-82.12q5.36-13.17,10.74-26.33c2-5,2.07-5,8.42-4.1l-3.82,112.76h-5.09v-30c-7.83,0-15.78-.15-23.7.16-1.22,0-2.85,2-3.44,3.38-3.17,7.5-6.29,15-9,22.73C252.3,379,250.19,380,246.09,378.63ZM291,343.21l2.62-64.93-1.21-.21-26,65.14Z"/><path class="cls-1" d="M213.6,330l-10.85,48.9-5.73.25c2.82-13,5.49-25.4,8.24-37.82,5.23-23.7,10.59-47.38,15.67-71.11.75-3.49,2-4.79,5.57-4.45,3.14.3,6.32.06,9.48.06,10.37,0,17.18,5.17,18.91,15.41,2.35,13.88-.35,26.9-9,38.22-5.34,7-12.57,10.71-21.57,10.55C220.85,330,217.38,330,213.6,330Zm13-59-11.8,53.35c11.58,1.5,21.52.58,27.87-9.91A46.85,46.85,0,0,0,249,282.9c-1-6.83-5.35-11.38-11-11.8C234.34,270.84,230.69,271.05,226.61,271.05Z"/><path class="cls-1" d="M617.58,271.09l-10.38,47H636l-1.14,5.47c-8.27,0-16.4.15-24.51-.07-3.52-.1-4.82,1.08-5.54,4.58-3.12,15.13-6.62,30.18-10.12,45.84h30.05l-.86,5H588c2.41-10.93,4.75-21.58,7.1-32.24,5.63-25.5,11.34-51,16.82-76.51.69-3.2,1.72-4.45,5.12-4.38,10.46.21,20.92.08,31.71.08l-1,5.23Z"/><path class="cls-1" d="M539.29,374h29.28l1.17,1.23c-1.21,1.33-2.39,3.78-3.64,3.81-11,.3-21.92.18-33.64.18L557.4,265.94h5.73Z"/><path class="cls-1" d="M337.35,265.8h5.74L318.17,378.92h-5.73Z"/></svg>