<svg id="logo_Image" data-name="logo Image" xmlns="http://www.w3.org/2000/svg" viewBox="0 0 488 488"><defs><style>.cls-1{fill:#fff;}</style></defs><title>Artboard 1</title><path d="M228.28,191.16c0-10.49-.1-21,.13-31.45,0-1.33,1.79-3.74,2.78-3.76,11.48-.2,23-.76,34.43.2,20.77,1.75,32.39,16.92,30.49,38.46-2,22.53-13.43,33-36.06,33.09-8.49,0-17-.28-25.46.11-4.87.22-6.69-.91-6.45-6.19C228.6,211.48,228.27,201.31,228.28,191.16Zm26.55,19.62c11.31-.15,17.09-3.65,19.28-11.19,4.73-16.26-3.52-27-20.37-27-3.95,0-4.7,1.42-4.62,4.94.2,9,.33,18,0,26.93C248.87,209.61,250.07,212.21,254.83,210.78Z"/><path d="M390.1,202.56c-2.54,0-4.55-.28-6.46.05-5.28.92-6.36-1.41-6.13-6.26.39-8.56.11-8.58,8.75-8.58,6.83,0,13.67-.16,20.49.16,1.19.05,3.26,2.08,3.28,3.24.25,11,.07,22,.21,33,0,3-1.23,3.76-3.88,3.58-2-.14-4.07.3-6-.11a12.24,12.24,0,0,1-6-3.44c-7.83,4.84-17,5.61-26.3,4-19.27-3.29-30.2-19.18-28.62-41,1.33-18.28,15.25-31.7,33.76-32.41,10.08-.39,20,.87,27.36,8.36,3.76,3.83,5.81,9.4,8.3,14.35.3.6-1.37,3.17-2.23,3.22a148.83,148.83,0,0,1-15.48.06,5.13,5.13,0,0,1-3.43-2.07c-6.19-9.06-18.35-9.32-24,0-5.16,8.5-5,17.53-.07,26.11,2.86,5,7.66,7.3,13.51,6.87C383.53,211.18,387.32,208.62,390.1,202.56Z"/><path d="M137.84,227.67c-6.8,0-12.92.18-19-.17-1.09-.06-2.69-2.24-3-3.64-.78-4.07-.83-8.28-1.49-12.39-1.33-8.34-12.6-13.71-19.93-9.47-.81.47-1.19,2.25-1.21,3.43-.12,6-.2,12,0,18,.1,3.16-.75,4.56-4.16,4.34a93,93,0,0,0-12.49,0c-3.72.27-4.39-1.38-4.37-4.66q.17-31.49,0-63c0-3.54,1.11-4.5,4.55-4.44,11.49.2,23,0,34.48.13a36.53,36.53,0,0,1,8.89,1.15c7.35,2,13.22,5.94,14.85,13.86,1.84,8.95,0,16.91-8.41,22.8C138.4,202.3,132.65,216.25,137.84,227.67Zm-36.22-56.26c-9.68.46-8.28-1.12-8.43,8.72a13.75,13.75,0,0,0,.13,3.95c.26.88,1.3,2.16,2,2.17,4.62,0,9.44.51,13.78-.67,2.26-.62,4.92-4.23,5.1-6.66.15-2-2.65-5-4.87-6.31S104.23,171.74,101.62,171.41Z"/><path d="M311.56,297.79c11.77,8.82,6.07,22.56,11.35,33.87-6.89,0-13.12.15-19.32-.16-1,0-2.41-2.09-2.67-3.39-.71-3.58-.89-7.26-1.3-10.9-1.11-9.91-10.85-15.5-19.9-11.23-.89.42-1.42,2.42-1.45,3.7-.15,6-.19,12,0,18,.08,2.94-.72,4.28-3.9,4.08-5.44-.34-12.54,1.57-15.85-1.18-2.73-2.27-1.15-9.92-1.18-15.18-.09-17,.08-34-.11-51,0-3.78,1.11-4.79,4.81-4.71,11.32.24,22.66,0,34,.16a42.84,42.84,0,0,1,10.78,1.71c7.08,2,12.09,6.53,13.38,14,1.33,7.74.16,15-6.4,20.38C313.12,296.43,312.52,297,311.56,297.79Zm-25.27-7,.06-.5a52.77,52.77,0,0,0,6,0c4.33-.49,7.13-2.88,7.22-7.38.09-4.22-2.84-6.38-6.56-6.84a88.65,88.65,0,0,0-12.39-.24c-.75,0-2.12.92-2.13,1.43-.08,4.11-.39,8.34.53,12.26C279.2,290.45,283.73,290.39,286.29,290.8Z"/><path d="M144.28,191.24c.22-23,14.29-36.68,37.53-36.47,21.5.2,35.55,15,35.38,37.31-.18,23.07-14.45,36.84-38,36.62C157.66,228.5,144.06,213.93,144.28,191.24Zm20.92.76c.09,11.2,6.34,19.4,15,19.72,8.35.31,14.57-6.72,15.86-17.93s-5.57-21.3-14.81-22c-8.87-.66-16,8-16.1,19.7C165.19,191.67,165.19,191.84,165.19,192Z"/><path d="M81,282.55c-1.67,0-3.33,0-5,0-3,.09-5.37.28-6.83-3.73-1.73-4.75-10.9-6-14.93-2.7-3,2.47-2.61,5.19.65,6.69,3.74,1.72,7.84,2.64,11.8,3.86,4.92,1.52,10,2.64,14.75,4.56,6.72,2.72,11.41,7.45,12,15.18.66,8.73-1.37,16.79-9.5,21-14.79,7.72-30.11,7.83-44.91-.19-6.24-3.38-9-9.49-9.76-16.54-.29-2.9.46-4.38,3.72-4.15a90.09,90.09,0,0,0,9.49,0c4.2-.14,7.41-.34,9.21,5.31,2.07,6.49,15.1,7.4,19.44,2,2.86-3.53.9-6.21-2.32-7.52-4.74-1.94-9.79-3.1-14.69-4.69-4.1-1.33-8.37-2.36-12.21-4.25-13.83-6.81-15.09-25.31-1.82-33.2s27.26-7.83,41-.76c5.66,2.92,8.6,8.05,9.93,14.27.78,3.65,0,5.35-4,4.8A45.52,45.52,0,0,0,81,282.55Z"/><path d="M447.09,282.56c-1.67,0-3.33,0-5,0-3,0-5.4.4-6.86-3.68-1.7-4.76-10.85-6.06-14.91-2.77-3,2.44-2.71,5.17.58,6.7,3.73,1.73,7.84,2.66,11.79,3.88,4.92,1.52,10,2.62,14.76,4.55,6.72,2.71,11.44,7.43,12,15.16.67,8.73-1.34,16.79-9.45,21.05-14.78,7.76-30.09,7.82-44.91-.13-6.08-3.26-8.88-9.19-9.76-16-.43-3.31.34-5.08,4.14-4.7a58.18,58.18,0,0,0,8,0c4.63-.18,8.39-.54,10.49,5.69s14.91,6.83,19.18,1.69c2.66-3.2,1.24-5.87-1.82-7.3-3.73-1.74-7.81-2.72-11.74-4.05-5.65-1.91-11.64-3.17-16.87-5.9-11.83-6.18-13-22.55-2.71-31.08,10.67-8.82,33.61-9.43,44.77-1.11,1.59,1.18,3.52,2.47,4.22,4.16,1.74,4.2,2.86,8.65,4.22,13l-10.09,1.21Z"/><path d="M21.56,155.36c7.63.44,15.36.26,22.87,1.46,11.86,1.9,18,10.6,17.74,23.42-.33,13.83-6.66,21.86-19,23.37a129.24,129.24,0,0,1-17.44.65c-3.39,0-4.78.83-4.58,4.44.28,5-.07,10,.12,15,.11,3-.82,4-3.92,4.08-17,.55-17,.63-17-16.44,0-16.66.18-33.33-.11-50-.08-4.71,1.42-6,5.89-5.67,5.14.37,10.32.09,15.49.09ZM21.2,179c.09,5.57-1.88,10.62,6.32,9.92,9.8-.84,13.74-2.59,13.66-8.65-.07-5.8-4.21-8.67-12.7-8.6S21.32,170.56,21.2,179Z"/><path d="M103.28,295.16c0-10.5.09-21-.05-31.49,0-3,.94-4,4-4,11.16.16,22.33-.14,33.49.11,20.69.46,31.51,20,21.21,38.06-4.85,8.53-13.22,9.93-21.92,10.42a73.26,73.26,0,0,1-11,0c-4.13-.39-5.15,1.33-4.9,5.11.28,4.31-.27,8.69.15,13,.46,4.64-1.42,5.79-5.65,5.41a64.94,64.94,0,0,0-11,0c-3.67.29-4.47-1.27-4.42-4.61C103.38,316.49,103.28,305.82,103.28,295.16Zm20-11.55.94.34a39.68,39.68,0,0,0,.09,6c.16,1,1.2,2.66,1.88,2.68,4,.12,8.07.38,11.91-.42,5.56-1.17,7.73-7.36,4.79-12.27-2.31-3.87-10-6.22-16.41-3.87C124.7,276.69,124.29,281,123.26,283.61Z"/><path d="M414,155.77c8,0,14.93-.19,21.85.16,1.42.07,3.26,1.89,4,3.36,3.75,7.18,7.21,14.51,11.22,22.72,3.89-8,7.48-15.07,10.78-22.29,1.33-2.92,2.92-4.24,6.34-4.05,6.25.34,12.54.1,19.58.1-1,2.08-1.66,3.54-2.45,4.9-5.93,10.21-11.58,20.6-18,30.51a36.33,36.33,0,0,0-6,22c.51,14.52.14,14.26-14.12,14.66-5.43.15-7.52-1.18-6.71-6.75,2-13.83-2-25.93-10-37.33C424.6,175.23,419.9,165.8,414,155.77Z"/><path d="M358.26,259.77c9,0,18,.14,27-.07,3.38-.08,4.59.79,4.62,4.38.1,12.62.24,12.62-12.34,12.62-8.95,0-8.95,0-8.95,9,0,13.64-.1,27.29.07,40.93,0,3.64-.57,5.57-4.82,5.15-5.23-.52-12.2,1.38-15.25-1.33-2.62-2.33-.89-9.67-.92-14.79-.06-11.65-.1-23.3,0-34.94,0-2.95-.74-4.22-3.9-4.06-4.31.22-8.67-.17-13,.12-3.63.25-4.4-1.2-4.4-4.57,0-12.43-.14-12.43,12.39-12.43Z"/><path d="M220.48,319.78c-2.57,1.42-5.22,2.69-7.65,4.31-1,.7-1.62,2.11-2.41,3.19,1.49.54,3,1.68,4.45,1.52,7.72-.88,14.13-4.4,20.31-11.22l-13.42,1.12-.7-1.3a47,47,0,0,1,5.08-3.68c4.13-2.25,5.51-5,2.41-9.13-.69-.92-.66-2.37-1-3.57a13.14,13.14,0,0,1,2.31-.33c8.1.25,10.43-1.92,10.73-10.16.06-1.66-.2-3.34-.1-5a34,34,0,0,1,.76-4.17c.94,1.25,2.5,2.41,2.69,3.76.46,3.27.19,6.63.36,9.95.19,3.62.61,7.24.76,10.86a8.62,8.62,0,0,1-.77,3.33C237.43,326.91,218.84,336.62,201,332c-18.75-4.91-30.22-22.89-27.15-42.56,2.71-17.37,19.85-31.22,38-30.42a27.81,27.81,0,0,1,9.63,2.24c6.83,3,8.74,9.73,5,16.18a23,23,0,0,1-1.7,2.47c-6.76,8.72-6.74,8.7.72,17.13.66.75.79,2,1.16,3-1,0-2.1,0-3.13-.09-.65-.08-1.25-.5-1.89-.62-3.64-.65-7.36-4.45-10.92-.19-4,4.85-5.42,14.64-2.39,18.46.89,1.12,3.43,1.23,5.22,1.26A44.72,44.72,0,0,0,220,318Zm-31.24-25.54c-8.46,7.79-8.45,7.78-.56,16a7.76,7.76,0,0,1,1,2.52,7.58,7.58,0,0,1-2.56.3c-1.83-.44-3.6-1.15-5.39-1.75L180.62,313l12.93,12.56,1.67-1.49c-1-1.82-2.19-3.58-3-5.48a37,37,0,0,1-1.46-4.74c1.43.6,3.14.89,4.25,1.86,3.18,2.8,5.66,2.21,6.45-1.68a96.12,96.12,0,0,0,1.25-14c.17-3.28-1.7-4.71-4.93-4.86-2.85-.14-5.69-.62-8.53-.95a34.48,34.48,0,0,1,4.72-3.84c4-2.27,8.8-3.67,8.09-9.91a57.83,57.83,0,0,1,.15-7.93c2,1.87,4.15,3.61,5.94,5.65,2.63,3,5.89,3.92,8.78,1.46s6.15-5.78,6.94-9.24c.38-1.66-4.19-5.92-7.1-6.63-16.14-4-32.66,6.83-36.43,23.15-1.55,6.69-1.36,6.88,5.57,6.65A15.13,15.13,0,0,1,189.24,294.24Z"/><path d="M328.18,191.36c0,10.65-.14,21.3.08,31.95.07,3.57-1.13,4.65-4.57,4.45-4.31-.26-8.67.19-13-.23-1.24-.12-3.29-2.13-3.3-3.29-.2-21.63-.11-43.26-.2-64.89,0-2.88,1-3.75,3.8-3.62,5.46.26,12.51-1.7,15.92,1,2.71,2.16,1.1,9.89,1.2,15.16C328.28,178.38,328.18,184.87,328.18,191.36Z"/><path class="cls-1" d="M228.28,191.16c0-10.49-.1-21,.13-31.45,0-1.33,1.79-3.74,2.78-3.76,11.48-.2,23-.76,34.43.2,20.77,1.75,32.39,16.92,30.49,38.46-2,22.53-13.43,33-36.06,33.09-8.49,0-17-.28-25.46.11-4.87.22-6.69-.91-6.45-6.19C228.6,211.48,228.27,201.31,228.28,191.16Zm26.55,19.62c11.31-.15,17.09-3.65,19.28-11.19,4.73-16.26-3.52-27-20.37-27-3.95,0-4.7,1.42-4.62,4.94.2,9,.33,18,0,26.93C248.87,209.61,250.07,212.21,254.83,210.78Z"/><path class="cls-1" d="M390.1,202.56c-2.54,0-4.55-.28-6.46.05-5.28.92-6.36-1.41-6.13-6.26.39-8.56.11-8.58,8.75-8.58,6.83,0,13.67-.16,20.49.16,1.19.05,3.26,2.08,3.28,3.24.25,11,.07,22,.21,33,0,3-1.23,3.76-3.88,3.58-2-.14-4.07.3-6-.11a12.24,12.24,0,0,1-6-3.44c-7.83,4.84-17,5.61-26.3,4-19.27-3.29-30.2-19.18-28.62-41,1.33-18.28,15.25-31.7,33.76-32.41,10.08-.39,20,.87,27.36,8.36,3.76,3.83,5.81,9.4,8.3,14.35.3.6-1.37,3.17-2.23,3.22a148.83,148.83,0,0,1-15.48.06,5.13,5.13,0,0,1-3.43-2.07c-6.19-9.06-18.35-9.32-24,0-5.16,8.5-5,17.53-.07,26.11,2.86,5,7.66,7.3,13.51,6.87C383.53,211.18,387.32,208.62,390.1,202.56Z"/><path class="cls-1" d="M137.84,227.67c-6.8,0-12.92.18-19-.17-1.09-.06-2.69-2.24-3-3.64-.78-4.07-.83-8.28-1.49-12.39-1.33-8.34-12.6-13.71-19.93-9.47-.81.47-1.19,2.25-1.21,3.43-.12,6-.2,12,0,18,.1,3.16-.75,4.56-4.16,4.34a93,93,0,0,0-12.49,0c-3.72.27-4.39-1.38-4.37-4.66q.17-31.49,0-63c0-3.54,1.11-4.5,4.55-4.44,11.49.2,23,0,34.48.13a36.53,36.53,0,0,1,8.89,1.15c7.35,2,13.22,5.94,14.85,13.86,1.84,8.95,0,16.91-8.41,22.8C138.4,202.3,132.65,216.25,137.84,227.67Zm-36.22-56.26c-9.68.46-8.28-1.12-8.43,8.72a13.75,13.75,0,0,0,.13,3.95c.26.88,1.3,2.16,2,2.17,4.62,0,9.44.51,13.78-.67,2.26-.62,4.92-4.23,5.1-6.66.15-2-2.65-5-4.87-6.31S104.23,171.74,101.62,171.41Z"/><path class="cls-1" d="M311.56,297.79c11.77,8.82,6.07,22.56,11.35,33.87-6.89,0-13.12.15-19.32-.16-1,0-2.41-2.09-2.67-3.39-.71-3.58-.89-7.26-1.3-10.9-1.11-9.91-10.85-15.5-19.9-11.23-.89.42-1.42,2.42-1.45,3.7-.15,6-.19,12,0,18,.08,2.94-.72,4.28-3.9,4.08-5.44-.34-12.54,1.57-15.85-1.18-2.73-2.27-1.15-9.92-1.18-15.18-.09-17,.08-34-.11-51,0-3.78,1.11-4.79,4.81-4.71,11.32.24,22.66,0,34,.16a42.84,42.84,0,0,1,10.78,1.71c7.08,2,12.09,6.53,13.38,14,1.33,7.74.16,15-6.4,20.38C313.12,296.43,312.52,297,311.56,297.79Zm-25.27-7,.06-.5a52.77,52.77,0,0,0,6,0c4.33-.49,7.13-2.88,7.22-7.38.09-4.22-2.84-6.38-6.56-6.84a88.65,88.65,0,0,0-12.39-.24c-.75,0-2.12.92-2.13,1.43-.08,4.11-.39,8.34.53,12.26C279.2,290.45,283.73,290.39,286.29,290.8Z"/><path class="cls-1" d="M144.28,191.24c.22-23,14.29-36.68,37.53-36.47,21.5.2,35.55,15,35.38,37.31-.18,23.07-14.45,36.84-38,36.62C157.66,228.5,144.06,213.93,144.28,191.24Zm20.92.76c.09,11.2,6.34,19.4,15,19.72,8.35.31,14.57-6.72,15.86-17.93s-5.57-21.3-14.81-22c-8.87-.66-16,8-16.1,19.7C165.19,191.67,165.19,191.84,165.19,192Z"/><path class="cls-1" d="M81,282.55c-1.67,0-3.33,0-5,0-3,.09-5.37.28-6.83-3.73-1.73-4.75-10.9-6-14.93-2.7-3,2.47-2.61,5.19.65,6.69,3.74,1.72,7.84,2.64,11.8,3.86,4.92,1.52,10,2.64,14.75,4.56,6.72,2.72,11.41,7.45,12,15.18.66,8.73-1.37,16.79-9.5,21-14.79,7.72-30.11,7.83-44.91-.19-6.24-3.38-9-9.49-9.76-16.54-.29-2.9.46-4.38,3.72-4.15a90.09,90.09,0,0,0,9.49,0c4.2-.14,7.41-.34,9.21,5.31,2.07,6.49,15.1,7.4,19.44,2,2.86-3.53.9-6.21-2.32-7.52-4.74-1.94-9.79-3.1-14.69-4.69-4.1-1.33-8.37-2.36-12.21-4.25-13.83-6.81-15.09-25.31-1.82-33.2s27.26-7.83,41-.76c5.66,2.92,8.6,8.05,9.93,14.27.78,3.65,0,5.35-4,4.8A45.52,45.52,0,0,0,81,282.55Z"/><path class="cls-1" d="M447.09,282.56c-1.67,0-3.33,0-5,0-3,0-5.4.4-6.86-3.68-1.7-4.76-10.85-6.06-14.91-2.77-3,2.44-2.71,5.17.58,6.7,3.73,1.73,7.84,2.66,11.79,3.88,4.92,1.52,10,2.62,14.76,4.55,6.72,2.71,11.44,7.43,12,15.16.67,8.73-1.34,16.79-9.45,21.05-14.78,7.76-30.09,7.82-44.91-.13-6.08-3.26-8.88-9.19-9.76-16-.43-3.31.34-5.08,4.14-4.7a58.18,58.18,0,0,0,8,0c4.63-.18,8.39-.54,10.49,5.69s14.91,6.83,19.18,1.69c2.66-3.2,1.24-5.87-1.82-7.3-3.73-1.74-7.81-2.72-11.74-4.05-5.65-1.91-11.64-3.17-16.87-5.9-11.83-6.18-13-22.55-2.71-31.08,10.67-8.82,33.61-9.43,44.77-1.11,1.59,1.18,3.52,2.47,4.22,4.16,1.74,4.2,2.86,8.65,4.22,13l-10.09,1.21Z"/><path class="cls-1" d="M21.56,155.36c7.63.44,15.36.26,22.87,1.46,11.86,1.9,18,10.6,17.74,23.42-.33,13.83-6.66,21.86-19,23.37a129.24,129.24,0,0,1-17.44.65c-3.39,0-4.78.83-4.58,4.44.28,5-.07,10,.12,15,.11,3-.82,4-3.92,4.08-17,.55-17,.63-17-16.44,0-16.66.18-33.33-.11-50-.08-4.71,1.42-6,5.89-5.67,5.14.37,10.32.09,15.49.09ZM21.2,179c.09,5.57-1.88,10.62,6.32,9.92,9.8-.84,13.74-2.59,13.66-8.65-.07-5.8-4.21-8.67-12.7-8.6S21.32,170.56,21.2,179Z"/><path class="cls-1" d="M103.28,295.16c0-10.5.09-21-.05-31.49,0-3,.94-4,4-4,11.16.16,22.33-.14,33.49.11,20.69.46,31.51,20,21.21,38.06-4.85,8.53-13.22,9.93-21.92,10.42a73.26,73.26,0,0,1-11,0c-4.13-.39-5.15,1.33-4.9,5.11.28,4.31-.27,8.69.15,13,.46,4.64-1.42,5.79-5.65,5.41a64.94,64.94,0,0,0-11,0c-3.67.29-4.47-1.27-4.42-4.61C103.38,316.49,103.28,305.82,103.28,295.16Zm20-11.55.94.34a39.68,39.68,0,0,0,.09,6c.16,1,1.2,2.66,1.88,2.68,4,.12,8.07.38,11.91-.42,5.56-1.17,7.73-7.36,4.79-12.27-2.31-3.87-10-6.22-16.41-3.87C124.7,276.69,124.29,281,123.26,283.61Z"/><path class="cls-1" d="M414,155.77c8,0,14.93-.19,21.85.16,1.42.07,3.26,1.89,4,3.36,3.75,7.18,7.21,14.51,11.22,22.72,3.89-8,7.48-15.07,10.78-22.29,1.33-2.92,2.92-4.24,6.34-4.05,6.25.34,12.54.1,19.58.1-1,2.08-1.66,3.54-2.45,4.9-5.93,10.21-11.58,20.6-18,30.51a36.33,36.33,0,0,0-6,22c.51,14.52.14,14.26-14.12,14.66-5.43.15-7.52-1.18-6.71-6.75,2-13.83-2-25.93-10-37.33C424.6,175.23,419.9,165.8,414,155.77Z"/><path class="cls-1" d="M358.26,259.77c9,0,18,.14,27-.07,3.38-.08,4.59.79,4.62,4.38.1,12.62.24,12.62-12.34,12.62-8.95,0-8.95,0-8.95,9,0,13.64-.1,27.29.07,40.93,0,3.64-.57,5.57-4.82,5.15-5.23-.52-12.2,1.38-15.25-1.33-2.62-2.33-.89-9.67-.92-14.79-.06-11.65-.1-23.3,0-34.94,0-2.95-.74-4.22-3.9-4.06-4.31.22-8.67-.17-13,.12-3.63.25-4.4-1.2-4.4-4.57,0-12.43-.14-12.43,12.39-12.43Z"/><path class="cls-1" d="M220.48,319.78c-2.57,1.42-5.22,2.69-7.65,4.31-1,.7-1.62,2.11-2.41,3.19,1.49.54,3,1.68,4.45,1.52,7.72-.88,14.13-4.4,20.31-11.22l-13.42,1.12-.7-1.3a47,47,0,0,1,5.08-3.68c4.13-2.25,5.51-5,2.41-9.13-.69-.92-.66-2.37-1-3.57a13.14,13.14,0,0,1,2.31-.33c8.1.25,10.43-1.92,10.73-10.16.06-1.66-.2-3.34-.1-5a34,34,0,0,1,.76-4.17c.94,1.25,2.5,2.41,2.69,3.76.46,3.27.19,6.63.36,9.95.19,3.62.61,7.24.76,10.86a8.62,8.62,0,0,1-.77,3.33C237.43,326.91,218.84,336.62,201,332c-18.75-4.91-30.22-22.89-27.15-42.56,2.71-17.37,19.85-31.22,38-30.42a27.81,27.81,0,0,1,9.63,2.24c6.83,3,8.74,9.73,5,16.18a23,23,0,0,1-1.7,2.47c-6.76,8.72-6.74,8.7.72,17.13.66.75.79,2,1.16,3-1,0-2.1,0-3.13-.09-.65-.08-1.25-.5-1.89-.62-3.64-.65-7.36-4.45-10.92-.19-4,4.85-5.42,14.64-2.39,18.46.89,1.12,3.43,1.23,5.22,1.26A44.72,44.72,0,0,0,220,318Zm-31.24-25.54c-8.46,7.79-8.45,7.78-.56,16a7.76,7.76,0,0,1,1,2.52,7.58,7.58,0,0,1-2.56.3c-1.83-.44-3.6-1.15-5.39-1.75L180.62,313l12.93,12.56,1.67-1.49c-1-1.82-2.19-3.58-3-5.48a37,37,0,0,1-1.46-4.74c1.43.6,3.14.89,4.25,1.86,3.18,2.8,5.66,2.21,6.45-1.68a96.12,96.12,0,0,0,1.25-14c.17-3.28-1.7-4.71-4.93-4.86-2.85-.14-5.69-.62-8.53-.95a34.48,34.48,0,0,1,4.72-3.84c4-2.27,8.8-3.67,8.09-9.91a57.83,57.83,0,0,1,.15-7.93c2,1.87,4.15,3.61,5.94,5.65,2.63,3,5.89,3.92,8.78,1.46s6.15-5.78,6.94-9.24c.38-1.66-4.19-5.92-7.1-6.63-16.14-4-32.66,6.83-36.43,23.15-1.55,6.69-1.36,6.88,5.57,6.65A15.13,15.13,0,0,1,189.24,294.24Z"/><path class="cls-1" d="M328.18,191.36c0,10.65-.14,21.3.08,31.95.07,3.57-1.13,4.65-4.57,4.45-4.31-.26-8.67.19-13-.23-1.24-.12-3.29-2.13-3.3-3.29-.2-21.63-.11-43.26-.2-64.89,0-2.88,1-3.75,3.8-3.62,5.46.26,12.51-1.7,15.92,1,2.71,2.16,1.1,9.89,1.2,15.16C328.28,178.38,328.18,184.87,328.18,191.36Z"/></svg>