<svg id="Layer_1" data-name="Layer 1" xmlns="http://www.w3.org/2000/svg" viewBox="0 0 250 250"><defs><style>.cls-1{fill:#fff;}</style></defs><title>Artboard 1</title><path d="M164.4,146.5c5.3,0,10.62-.24,15.91.06,6.22.36,8.16,2.66,8.25,8.88,0,3.17,0,6.33,0,9.5a7.8,7.8,0,0,1-4.67,7.61c-14,6.78-28.41,9.06-43.45,3.93-14.06-4.8-20.43-14.85-20.39-28.15s6-23.21,20.42-28.08c11.05-3.74,22.13-4,33.16.15a22.05,22.05,0,0,1,10.73,7.83c2.59,3.68,2.49,6.74-.09,9a7.9,7.9,0,0,1-10.12,0,30.94,30.94,0,0,1-3-3.36c-5.64-6.42-14.86-8.34-23.81-5-7.23,2.73-11.79,9.5-11.81,18a34.82,34.82,0,0,0,1,8.85c1.75,6.66,6.14,10.89,12.85,12.61,7.2,1.85,14.23.87,21.11-1.54A6.94,6.94,0,0,0,173,155.35c-2.87-2.73-5.93-5.25-8.9-7.86Z"/><path d="M209.19,128.36V142c1.95.11,3.57.27,5.18.27,7.33,0,14.67,0,22,0a33.25,33.25,0,0,1,4,.13c2.55.31,4.42,1.66,4.92,4.25.41,2.15-1.72,4.38-4.76,4.78a84.44,84.44,0,0,1-9.94.67c-7,.1-13.92,0-21.33,0v15.56c1.91.1,3.7.28,5.48.28,8.5,0,17,0,25.5.05,2,0,4.17,0,5.84.85,1.42.72,3,2.64,3.06,4s-1.55,3.34-2.94,4.12a12.46,12.46,0,0,1-5.78,1.12q-18.25.14-36.5,0c-7.86-.06-10.12-2.41-10.13-10.22q0-19.75,0-39.5c0-7.55,2.27-10,9.8-10,12.33-.11,24.66,0,37,0a12.28,12.28,0,0,1,1.5,0c3.7.46,5.73,2.28,5.69,5.08s-1.94,4.62-5.9,4.69c-9,.16-18,.07-27,.08Z"/><path d="M30.28,117.43a35.92,35.92,0,0,1,15,3.37c3.87,1.75,7.16,4.29,8.75,8.46,1.19,3.14.46,5.76-2,7.54a6.46,6.46,0,0,1-8.3-.24,37.81,37.81,0,0,1-3.7-4.68c-4.35-5.57-15.78-7.05-21.29-2.76-3.22,2.51-3.34,6.08.14,8.2a30,30,0,0,0,7.87,2.94c4.33,1.15,8.78,1.86,13.11,3a54.6,54.6,0,0,1,9.35,3.4c7.64,3.71,10.84,10.91,7.2,20.2-1.34,3.41-5.36,6.48-8.89,8.19-11.66,5.67-23.77,5.62-35.69.54a18.33,18.33,0,0,1-10.2-10.45c-1.52-3.91-.81-6.6,2.12-8.25a7.56,7.56,0,0,1,9.13,1.52,34.52,34.52,0,0,1,2.84,4.68,11.86,11.86,0,0,0,10.62,6.34c4.16.08,8.36.37,12.17-1.86,2.42-1.42,4.23-3.16,4.25-6.26s-1.85-5.07-4.42-6c-3.41-1.27-7-2-10.53-3-5-1.36-10-2.5-14.89-4.15a15.28,15.28,0,0,1-9.77-8.72c-3.2-7.85,1.45-14.95,7.42-18C16.31,118.62,22.45,117.44,30.28,117.43Z"/><path d="M89.43,117.42c5.32.13,8.82,2.76,11,7.34q7.37,15.22,14.79,30.41c2.24,4.63,4.55,9.23,6.64,13.93s1.39,7-2.06,8.89c-4,2.25-7.87,1.49-10.4-2.44a52.58,52.58,0,0,1-4.29-8.41,4.12,4.12,0,0,0-4.5-3c-7.32.14-14.65.16-22,0-2.64-.06-3.89,1.07-4.79,3.34a60.21,60.21,0,0,1-3.59,7.67c-2.31,4.06-6.21,5.08-10.21,2.91-2.72-1.48-3.87-3.64-3-6.62a56.22,56.22,0,0,1,3.13-7.25c6.08-12.95,12.25-25.85,18.26-38.83C80.74,120.59,84.16,117.74,89.43,117.42Zm10,36.74-9.21-20.95-1.35,0c-3,6.74-6.44,13.29-8.51,21Z"/><path d="M114.82,116.2c-2.1-4.06-5.67-6.1-9.62-8.26C91.06,100.22,79,89.84,68.42,77.67a27.46,27.46,0,0,1-2.7-4.17,17.81,17.81,0,0,1-.87-2.9c2.89.92,5.26,1.14,7,2.31,7.82,5.3,15.58,10.7,23.12,16.4,3.69,2.79,6.84,6.31,10.24,9.48a32.58,32.58,0,0,1,9.52,17.51Z"/><path d="M121.54,112.18c1.77-8.18,8-13.18,13.54-18.55A133.25,133.25,0,0,1,162,73.24c2.38-1.34,4.75-3,8.75-2.35-1.4,2.34-2.26,4.43-3.67,6-11.9,13.64-25.32,25.37-42,33-1.29.59-2.47,1.41-3.7,2.12Z"/><path d="M118.68,120.38l-.69,9.08-1.08,0-1.2-10.12-.1.08,1.5,3.36,1.65-2.34Z"/><path d="M118.77,120.46l1.93-6-.12-.11-1.89,6.07Z"/><path d="M115.72,119.37l-.9-3.17-.1.09.91,3.16Z"/><path d="M121.41,112.05l-.84,2.27.12.11.84-2.25Z"/><path class="cls-1" d="M164.4,146.5c5.3,0,10.62-.24,15.91.06,6.22.36,8.16,2.66,8.25,8.88,0,3.17,0,6.33,0,9.5a7.8,7.8,0,0,1-4.67,7.61c-14,6.78-28.41,9.06-43.45,3.93-14.06-4.8-20.43-14.85-20.39-28.15s6-23.21,20.42-28.08c11.05-3.74,22.13-4,33.16.15a22.05,22.05,0,0,1,10.73,7.83c2.59,3.68,2.49,6.74-.09,9a7.9,7.9,0,0,1-10.12,0,30.94,30.94,0,0,1-3-3.36c-5.64-6.42-14.86-8.34-23.81-5-7.23,2.73-11.79,9.5-11.81,18a34.82,34.82,0,0,0,1,8.85c1.75,6.66,6.14,10.89,12.85,12.61,7.2,1.85,14.23.87,21.11-1.54A6.94,6.94,0,0,0,173,155.35c-2.87-2.73-5.93-5.25-8.9-7.86Z"/><path class="cls-1" d="M209.19,128.36V142c1.95.11,3.57.27,5.18.27,7.33,0,14.67,0,22,0a33.25,33.25,0,0,1,4,.13c2.55.31,4.42,1.66,4.92,4.25.41,2.15-1.72,4.38-4.76,4.78a84.44,84.44,0,0,1-9.94.67c-7,.1-13.92,0-21.33,0v15.56c1.91.1,3.7.28,5.48.28,8.5,0,17,0,25.5.05,2,0,4.17,0,5.84.85,1.42.72,3,2.64,3.06,4s-1.55,3.34-2.94,4.12a12.46,12.46,0,0,1-5.78,1.12q-18.25.14-36.5,0c-7.86-.06-10.12-2.41-10.13-10.22q0-19.75,0-39.5c0-7.55,2.27-10,9.8-10,12.33-.11,24.66,0,37,0a12.28,12.28,0,0,1,1.5,0c3.7.46,5.73,2.28,5.69,5.08s-1.94,4.62-5.9,4.69c-9,.16-18,.07-27,.08Z"/><path class="cls-1" d="M30.28,117.43a35.92,35.92,0,0,1,15,3.37c3.87,1.75,7.16,4.29,8.75,8.46,1.19,3.14.46,5.76-2,7.54a6.46,6.46,0,0,1-8.3-.24,37.81,37.81,0,0,1-3.7-4.68c-4.35-5.57-15.78-7.05-21.29-2.76-3.22,2.51-3.34,6.08.14,8.2a30,30,0,0,0,7.87,2.94c4.33,1.15,8.78,1.86,13.11,3a54.6,54.6,0,0,1,9.35,3.4c7.64,3.71,10.84,10.91,7.2,20.2-1.34,3.41-5.36,6.48-8.89,8.19-11.66,5.67-23.77,5.62-35.69.54a18.33,18.33,0,0,1-10.2-10.45c-1.52-3.91-.81-6.6,2.12-8.25a7.56,7.56,0,0,1,9.13,1.52,34.52,34.52,0,0,1,2.84,4.68,11.86,11.86,0,0,0,10.62,6.34c4.16.08,8.36.37,12.17-1.86,2.42-1.42,4.23-3.16,4.25-6.26s-1.85-5.07-4.42-6c-3.41-1.27-7-2-10.53-3-5-1.36-10-2.5-14.89-4.15a15.28,15.28,0,0,1-9.77-8.72c-3.2-7.85,1.45-14.95,7.42-18C16.31,118.62,22.45,117.44,30.28,117.43Z"/><path class="cls-1" d="M89.43,117.42c5.32.13,8.82,2.76,11,7.34q7.37,15.22,14.79,30.41c2.24,4.63,4.55,9.23,6.64,13.93s1.39,7-2.06,8.89c-4,2.25-7.87,1.49-10.4-2.44a52.58,52.58,0,0,1-4.29-8.41,4.12,4.12,0,0,0-4.5-3c-7.32.14-14.65.16-22,0-2.64-.06-3.89,1.07-4.79,3.34a60.21,60.21,0,0,1-3.59,7.67c-2.31,4.06-6.21,5.08-10.21,2.91-2.72-1.48-3.87-3.64-3-6.62a56.22,56.22,0,0,1,3.13-7.25c6.08-12.95,12.25-25.85,18.26-38.83C80.74,120.59,84.16,117.74,89.43,117.42Zm10,36.74-9.21-20.95-1.35,0c-3,6.74-6.44,13.29-8.51,21Z"/><path class="cls-1" d="M114.82,116.2c-2.1-4.06-5.67-6.1-9.62-8.26C91.06,100.22,79,89.84,68.42,77.67a27.46,27.46,0,0,1-2.7-4.17,17.81,17.81,0,0,1-.87-2.9c2.89.92,5.26,1.14,7,2.31,7.82,5.3,15.58,10.7,23.12,16.4,3.69,2.79,6.84,6.31,10.24,9.48a32.58,32.58,0,0,1,9.52,17.51Z"/><path class="cls-1" d="M121.54,112.18c1.77-8.18,8-13.18,13.54-18.55A133.25,133.25,0,0,1,162,73.24c2.38-1.34,4.75-3,8.75-2.35-1.4,2.34-2.26,4.43-3.67,6-11.9,13.64-25.32,25.37-42,33-1.29.59-2.47,1.41-3.7,2.12Z"/><path class="cls-1" d="M118.68,120.38l-.69,9.08-1.08,0-1.2-10.12-.1.08,1.5,3.36,1.65-2.34Z"/><path class="cls-1" d="M118.77,120.46l1.93-6-.12-.11-1.89,6.07Z"/><path class="cls-1" d="M115.72,119.37l-.9-3.17-.1.09.91,3.16Z"/><path class="cls-1" d="M121.41,112.05l-.84,2.27.12.11.84-2.25Z"/></svg>