<svg id="Layer_1" data-name="Layer 1" xmlns="http://www.w3.org/2000/svg" viewBox="0 0 503 503"><defs><style>.cls-1{fill:#fff;}</style></defs><title>Artboard 1</title><path d="M0,266l5-8.55c5.48,2.05,10.6,4.44,16,5.8A22.55,22.55,0,0,0,31.2,263c1.82-.42,4.28-2.8,4.42-4.46.16-2-1.4-4.69-3.06-6-2-1.6-4.78-2.21-7.29-3.05-3.62-1.22-7.35-2.12-11-3.41-8.1-2.89-11.59-7.23-11.76-14.29-.2-8.22,3.86-14.74,11.34-17.67,11.54-4.52,22.11-1.73,32.74,4.58l-4.82,8.85c-5.05-1.71-9.65-3.61-14.43-4.75a13.07,13.07,0,0,0-7.79.56c-1.94.86-4.16,3.29-4.37,5.23s1.52,4.68,3.23,5.91c2.19,1.58,5.2,2,7.88,2.91,4,1.29,8,2.26,11.86,3.82,7.43,3,10.85,8.35,10.61,15.81s-4.24,13.35-11.61,15.81c-11,3.67-21.68,1.78-32-3.05-1.8-.84-3.51-1.86-5.27-2.79Z"/><path d="M127,273.78H116c0-6.55,0-13,0-19.41,0-2,0-4,0-6-.16-6.9-2.36-10.2-6.85-10.38-5.14-.21-10.85,5.23-11,10.92-.21,6.82,0,13.66-.06,20.49,0,1.31-.11,2.62-.18,4.25H86.32c0-6.68,0-13.29,0-19.91,0-1.67,0-3.33,0-5-.19-7.36-2.33-10.66-7-10.76-5.43-.12-10.76,5.41-10.89,11.56-.14,6.66,0,13.33,0,20,0,1.3-.14,2.6-.23,4.16H57.23v-44.9H67l.25,5.21c5-2,10.18-4.83,15.68-6,6.6-1.4,11.61,1.86,14.31,8.72,4.14-5.29,8.94-8.75,15.58-9,8.17-.25,13.55,3.45,14,11.55C127.53,250.59,127,261.9,127,273.78Z"/><path d="M341,250.59c.15-14.14,10.07-23.52,24.71-23.38,13.62.13,23.34,10.1,23.26,23.86-.08,14.12-10.34,24.1-24.46,23.79C350.59,274.55,340.89,264.54,341,250.59Z"/><path d="M254.6,211.29c9.68,0,18.86-.36,28,.1,9.66.49,18.1,10.69,17.93,20.8-.19,11.11-8.44,20-19.27,20.41-5,.21-9.93,0-15.63,0v20.89h-11Zm10.95,20.13c0,11.58,0,11.58,11.64,11.41,1,0,2,0,3-.11,4.31-.41,6.92-2.81,8.11-6.92,2.49-8.6-2.17-14.94-11.23-14.9C263.21,221,265.85,219.32,265.54,231.42Z"/><path d="M164.88,246.67c.93-11.61-7.07-13.83-24.22-6.25l-3.33-6.82c9.87-6.22,20-8,30.52-3.4,5.8,2.52,8.57,7.68,9,13.94.21,3-.07,6,.17,9,.33,4.08-1.21,8.3,2.43,12.15,1.4,1.48.23,5.39.23,8.12-7.55,2.5-10.33,1.3-12.66-4.74-4.55,2-8.94,4.76-13.72,5.85-8.49,1.94-16.6-3.29-18.23-10.77-1.75-8,2.84-15.09,12.21-16.85C152.85,245.81,158.76,246.67,164.88,246.67Zm-9,5.43a33.43,33.43,0,0,0-4.24.9c-3.54,1.21-6.41,3.21-5.7,7.5.69,4.1,3.79,6,7.57,5.6,3.14-.35,6.68-1.28,9-3.2,1.73-1.42,2.33-4.85,2.33-7.38,0-.93-3.12-2-4.93-2.74A19.07,19.07,0,0,0,155.93,252.1Z"/><path d="M472.94,228.74c-2.37,6.78-4.6,13.18-6.85,19.56q-6.11,17.4-12.25,34.79c-2,5.71-5.68,9.59-11.88,10.91-8.74,1.87-10.74-.1-9-9.19,9.4.54,13.92-5.92,10.39-14.94-5.32-13.59-10.67-27.17-16.41-41.76,3.53,0,6.5-.38,9.29.17,1.29.25,2.73,2.13,3.26,3.57,3.53,9.68,6.82,19.44,10.21,29.17.26.75.64,1.45,1.4,3.16a44.88,44.88,0,0,0,2-4.4c2.59-8.24,5.11-16.5,7.68-24.75C463.27,227.13,463.29,227.14,472.94,228.74Z"/><path d="M400.56,229.85c4.05-20.48,11-25.45,26.73-18.63l-2,7.45c-1.95-.35-3.54-.77-5.15-.91-5.6-.45-10.12,5.92-7.64,11,.41.84,2.06,1.39,3.2,1.49,2.44.22,4.91.07,7.57.07a33.37,33.37,0,0,1,.38,3.38c0,1.47-.13,2.94-.24,5h-11v34.77h-11V239.24l-5.86-.95v-7.5Z"/><path d="M224,214h11.61v14.08l9.46.63v8.43l-9.19.48c0,7.65-.24,15.08.22,22.48.09,1.39,2.8,3.15,4.62,3.72,1.51.47,3.49-.54,5.85-1l2.33,8.87c-2.9.9-5.51,2-8.22,2.52-11.15,2.31-16.54-2.1-16.57-13.35q0-11-.09-21.94a5,5,0,0,0-.44-1.22l-5.28-.57v-8.22L224,228Z"/><path d="M491.94,209.74c0,12.36,0,24.33,0,36.3,0,3,0,6,0,9,0,9.11,1.07,10.21,9.68,10.22,2.51,6.79,2.09,7.57-4.82,8.94-10.47,2.08-15.62-2-15.63-12.58,0-17.14,0-34.29,0-51.87Z"/><path d="M188.28,228.79h10.13l.45,8.39c4.39-5.31,8.54-9.78,15.86-9.16v10.25c-1.35.25-2.78.49-4.21.77-8.16,1.61-10.93,5-10.93,13.2,0,7.1,0,14.21,0,21.52H188.28Z"/><path d="M319.84,273.61H309.45c-.12-1.88-.32-3.63-.33-5.38,0-10.8,0-21.6,0-32.4,0-8.62.39-8.92,9.38-7l.78,8.32c5-4.54,8.52-10.38,16.59-9.57,0,2.15.42,4.36-.14,6.29-.42,1.47-1.87,3.4-3.2,3.72-10.14,2.47-12.67,5.43-12.67,15.68C319.84,259.85,319.84,266.46,319.84,273.61Z"/><path d="M329.18,292.31c18.07-21.6,54.15-21.6,70.65-.21C376.33,282.58,353.2,282.51,329.18,292.31Z"/><path d="M57.42,277.43c23.06,9.12,45.06,9.22,67.14,1.18C114.54,297.18,79.26,297.06,57.42,277.43Z"/><path class="cls-1" d="M0,266l5-8.55c5.48,2.05,10.6,4.44,16,5.8A22.55,22.55,0,0,0,31.2,263c1.82-.42,4.28-2.8,4.42-4.46.16-2-1.4-4.69-3.06-6-2-1.6-4.78-2.21-7.29-3.05-3.62-1.22-7.35-2.12-11-3.41-8.1-2.89-11.59-7.23-11.76-14.29-.2-8.22,3.86-14.74,11.34-17.67,11.54-4.52,22.11-1.73,32.74,4.58l-4.82,8.85c-5.05-1.71-9.65-3.61-14.43-4.75a13.07,13.07,0,0,0-7.79.56c-1.94.86-4.16,3.29-4.37,5.23s1.52,4.68,3.23,5.91c2.19,1.58,5.2,2,7.88,2.91,4,1.29,8,2.26,11.86,3.82,7.43,3,10.85,8.35,10.61,15.81s-4.24,13.35-11.61,15.81c-11,3.67-21.68,1.78-32-3.05-1.8-.84-3.51-1.86-5.27-2.79Z"/><path class="cls-1" d="M127,273.78H116c0-6.55,0-13,0-19.41,0-2,0-4,0-6-.16-6.9-2.36-10.2-6.85-10.38-5.14-.21-10.85,5.23-11,10.92-.21,6.82,0,13.66-.06,20.49,0,1.31-.11,2.62-.18,4.25H86.32c0-6.68,0-13.29,0-19.91,0-1.67,0-3.33,0-5-.19-7.36-2.33-10.66-7-10.76-5.43-.12-10.76,5.41-10.89,11.56-.14,6.66,0,13.33,0,20,0,1.3-.14,2.6-.23,4.16H57.23v-44.9H67l.25,5.21c5-2,10.18-4.83,15.68-6,6.6-1.4,11.61,1.86,14.31,8.72,4.14-5.29,8.94-8.75,15.58-9,8.17-.25,13.55,3.45,14,11.55C127.53,250.59,127,261.9,127,273.78Z"/><path class="cls-1" d="M341,250.59c.15-14.14,10.07-23.52,24.71-23.38,13.62.13,23.34,10.1,23.26,23.86-.08,14.12-10.34,24.1-24.46,23.79C350.59,274.55,340.89,264.54,341,250.59Z"/><path class="cls-1" d="M254.6,211.29c9.68,0,18.86-.36,28,.1,9.66.49,18.1,10.69,17.93,20.8-.19,11.11-8.44,20-19.27,20.41-5,.21-9.93,0-15.63,0v20.89h-11Zm10.95,20.13c0,11.58,0,11.58,11.64,11.41,1,0,2,0,3-.11,4.31-.41,6.92-2.81,8.11-6.92,2.49-8.6-2.17-14.94-11.23-14.9C263.21,221,265.85,219.32,265.54,231.42Z"/><path class="cls-1" d="M164.88,246.67c.93-11.61-7.07-13.83-24.22-6.25l-3.33-6.82c9.87-6.22,20-8,30.52-3.4,5.8,2.52,8.57,7.68,9,13.94.21,3-.07,6,.17,9,.33,4.08-1.21,8.3,2.43,12.15,1.4,1.48.23,5.39.23,8.12-7.55,2.5-10.33,1.3-12.66-4.74-4.55,2-8.94,4.76-13.72,5.85-8.49,1.94-16.6-3.29-18.23-10.77-1.75-8,2.84-15.09,12.21-16.85C152.85,245.81,158.76,246.67,164.88,246.67Zm-9,5.43a33.43,33.43,0,0,0-4.24.9c-3.54,1.21-6.41,3.21-5.7,7.5.69,4.1,3.79,6,7.57,5.6,3.14-.35,6.68-1.28,9-3.2,1.73-1.42,2.33-4.85,2.33-7.38,0-.93-3.12-2-4.93-2.74A19.07,19.07,0,0,0,155.93,252.1Z"/><path class="cls-1" d="M472.94,228.74c-2.37,6.78-4.6,13.18-6.85,19.56q-6.11,17.4-12.25,34.79c-2,5.71-5.68,9.59-11.88,10.91-8.74,1.87-10.74-.1-9-9.19,9.4.54,13.92-5.92,10.39-14.94-5.32-13.59-10.67-27.17-16.41-41.76,3.53,0,6.5-.38,9.29.17,1.29.25,2.73,2.13,3.26,3.57,3.53,9.68,6.82,19.44,10.21,29.17.26.75.64,1.45,1.4,3.16a44.88,44.88,0,0,0,2-4.4c2.59-8.24,5.11-16.5,7.68-24.75C463.27,227.13,463.29,227.14,472.94,228.74Z"/><path class="cls-1" d="M400.56,229.85c4.05-20.48,11-25.45,26.73-18.63l-2,7.45c-1.95-.35-3.54-.77-5.15-.91-5.6-.45-10.12,5.92-7.64,11,.41.84,2.06,1.39,3.2,1.49,2.44.22,4.91.07,7.57.07a33.37,33.37,0,0,1,.38,3.38c0,1.47-.13,2.94-.24,5h-11v34.77h-11V239.24l-5.86-.95v-7.5Z"/><path class="cls-1" d="M224,214h11.61v14.08l9.46.63v8.43l-9.19.48c0,7.65-.24,15.08.22,22.48.09,1.39,2.8,3.15,4.62,3.72,1.51.47,3.49-.54,5.85-1l2.33,8.87c-2.9.9-5.51,2-8.22,2.52-11.15,2.31-16.54-2.1-16.57-13.35q0-11-.09-21.94a5,5,0,0,0-.44-1.22l-5.28-.57v-8.22L224,228Z"/><path class="cls-1" d="M491.94,209.74c0,12.36,0,24.33,0,36.3,0,3,0,6,0,9,0,9.11,1.07,10.21,9.68,10.22,2.51,6.79,2.09,7.57-4.82,8.94-10.47,2.08-15.62-2-15.63-12.58,0-17.14,0-34.29,0-51.87Z"/><path class="cls-1" d="M188.28,228.79h10.13l.45,8.39c4.39-5.31,8.54-9.78,15.86-9.16v10.25c-1.35.25-2.78.49-4.21.77-8.16,1.61-10.93,5-10.93,13.2,0,7.1,0,14.21,0,21.52H188.28Z"/><path class="cls-1" d="M319.84,273.61H309.45c-.12-1.88-.32-3.63-.33-5.38,0-10.8,0-21.6,0-32.4,0-8.62.39-8.92,9.38-7l.78,8.32c5-4.54,8.52-10.38,16.59-9.57,0,2.15.42,4.36-.14,6.29-.42,1.47-1.87,3.4-3.2,3.72-10.14,2.47-12.67,5.43-12.67,15.68C319.84,259.85,319.84,266.46,319.84,273.61Z"/><path class="cls-1" d="M329.18,292.31c18.07-21.6,54.15-21.6,70.65-.21C376.33,282.58,353.2,282.51,329.18,292.31Z"/><path class="cls-1" d="M57.42,277.43c23.06,9.12,45.06,9.22,67.14,1.18C114.54,297.18,79.26,297.06,57.42,277.43Z"/></svg>