<svg id="Layer_1" data-name="Layer 1" xmlns="http://www.w3.org/2000/svg" viewBox="0 0 70.14 14.66"><defs><style>.cls-1{fill:#231f20;}.cls-2{fill:#fff;}</style></defs><title>Mark Swedberg</title><path class="cls-1" d="M61.11,154.36c-0.2.07-2,4.62-3.26,4.62a0.73,0.73,0,0,1-.65-0.53,12.44,12.44,0,0,1-.43-4,0.16,0.16,0,0,0,0-.11,0.29,0.29,0,0,0-.06.12c-0.53,1.73-1.42,4.68-3.38,4.68-0.22,0-.55,0-0.55-0.31a0.23,0.23,0,0,1,.23-0.24l0.52,0.06c1.92,0,3.26-5.76,3.26-7.27a3,3,0,0,0-.13-1,0.15,0.15,0,0,1,0-.07,1.08,1.08,0,0,1,.9-0.56,0.8,0.8,0,0,1,.34.07,1.56,1.56,0,0,1,.26,1.09c0,0.2,0,.46,0,5.54a2,2,0,0,0,.2,1.26,1.2,1.2,0,0,0,.47-0.5c0.35-.55.65-1.13,0.95-1.7,0.44-.85.86-1.7,1.26-2.58a7,7,0,0,0,.52-1.25,1.18,1.18,0,0,1,.4-0.88,0.82,0.82,0,0,1,.29-0.06c0.28,0,.28.3,0.28,0.5a6.6,6.6,0,0,1-.12,1.08,20.83,20.83,0,0,0-.29,3.24c0,0.35.07,1.48,0.55,1.48,0.66,0,1.12-1,1.44-1.48a0.35,0.35,0,0,1,.28-0.2,0.19,0.19,0,0,1,.19.17,0.67,0.67,0,0,1-.1.3c-0.3.64-1.25,1.91-2,1.91-1.24,0-1.25-2.54-1.25-3.39A0,0,0,0,0,61.11,154.36Z" transform="translate(-52.75 -147.7)"/><path class="cls-1" d="M69,156.55c-0.44.62-1.32,1.71-2.16,1.71S66,157,66,156.41c-0.31.49-1,1.58-1.68,1.58s-0.72-.79-0.72-1.25c0-1.26,1.31-3.45,2.71-3.45a0.46,0.46,0,0,1,.4.37,0.18,0.18,0,0,1-.12.14,5.31,5.31,0,0,0-1.18.89,3.36,3.36,0,0,0-1,2.35c0,0.1,0,.29.16,0.29,0.54,0,1.55-2.12,1.78-2.61a0.47,0.47,0,0,1,.41-0.36,0.23,0.23,0,0,1,.28.19,3.33,3.33,0,0,1-.22.7,4.55,4.55,0,0,0-.18,1.33c0,0.25,0,1.18.38,1.18,0.56,0,1.46-1.19,1.79-1.62a0.6,0.6,0,0,1,.34-0.3,0.19,0.19,0,0,1,.19.23A1.23,1.23,0,0,1,69,156.55Z" transform="translate(-52.75 -147.7)"/><path class="cls-1" d="M69.94,154.71a6.3,6.3,0,0,1-1.15,2.15,0.49,0.49,0,0,1-.32.18,0.14,0.14,0,0,1-.16-0.16,0.46,0.46,0,0,1,.11-0.26,5,5,0,0,0,1-2.17,1.67,1.67,0,0,1-.31-1c0-.37.23-1.34,0.71-1.34s0.4,0.7.4,0.94a4.65,4.65,0,0,1,0,.58c0.37,0.56,1.43.61,1.43,1.68a2.1,2.1,0,0,1-.06.47,7.38,7.38,0,0,0-.24,1.69c0,0.16,0,.44.23,0.44,0.55,0,1.54-1.25,1.85-1.71a0.48,0.48,0,0,1,.31-0.26c0.14,0,.17.13,0.17,0.25a0.46,0.46,0,0,1-.1.25c-0.38.62-1.6,2-2.36,2s-0.84-1.12-.84-1.68,0.06-.88.06-1.32A0.86,0.86,0,0,0,69.94,154.71Z" transform="translate(-52.75 -147.7)"/><path class="cls-1" d="M74.38,158.72c0,0.22,0,.56-0.31.56a0.33,0.33,0,0,1-.31-0.34,13.32,13.32,0,0,1-.11-2.18,28.21,28.21,0,0,1,.36-4.38,23.11,23.11,0,0,1,.67-3.24,1.07,1.07,0,0,1,1-.91,0.28,0.28,0,0,1,.3.32,1.61,1.61,0,0,1-.12.53c-0.17.47-.29,1-0.5,1.83a34.74,34.74,0,0,0-.73,4.14c0.7-.73,1.45-1.39,2.18-2.09a0.86,0.86,0,0,1,.43-0.29,0.28,0.28,0,0,1,.25.28,0.7,0.7,0,0,1-.32.44c-0.83.67-1.6,1.4-2.36,2.13a6.5,6.5,0,0,1,.91.47,16,16,0,0,1,1.45.86,0.76,0.76,0,0,1,.37.54,0.2,0.2,0,0,1-.25.17,0.85,0.85,0,0,1-.37-0.12l-1.62-.85a5,5,0,0,0-.68-0.32A17.77,17.77,0,0,0,74.38,158.72Z" transform="translate(-52.75 -147.7)"/><path class="cls-1" d="M86.94,150.09c0-.24-0.43-0.24-0.59-0.24a4.6,4.6,0,0,0-.82.06c-0.76.13-2,.76-2,1.66,0,1.49,3.35,2.64,3.35,4.52s-2.9,2.19-4.27,2.19a5.66,5.66,0,0,1-.64,0c-0.2,0-.9,0-0.9-0.35s0.17-.26.38-0.26c0.4,0,.78.16,1.18,0.16,0.86,0,3.38-.26,3.38-1.45,0-1.34-3.61-2.47-3.61-4.63,0-1.9,2.82-2.25,4.23-2.25,0.44,0,1.3.1,1.3,0.7a1.14,1.14,0,0,1-.36.8,2.16,2.16,0,0,1-1.09.55,0.29,0.29,0,0,1-.31-0.3C86.15,150.81,86.94,150.46,86.94,150.09Z" transform="translate(-52.75 -147.7)"/><path class="cls-1" d="M92.36,158.47a1,1,0,0,1-.71-0.32,5,5,0,0,1-.59-2.4S89.31,158,88.55,158c-0.6,0-.65-0.61-0.65-1.07a8.49,8.49,0,0,1,.92-3,0.63,0.63,0,0,1,.54-0.25,0.32,0.32,0,0,1,.38.26,0.58,0.58,0,0,1-.08.24,7.11,7.11,0,0,0-.83,2.87s0,0.17.07,0.17a1.76,1.76,0,0,0,.7-0.5,9.75,9.75,0,0,0,1.14-1.38c0.13-.2.29-0.49,0.41-0.66a0.5,0.5,0,0,1,.44-0.16c0.32,0,.35.3,0.35,0.55,0,0.41.22,2.73,0.68,2.73,0.64,0,.86-2,0.86-2.49a2.64,2.64,0,0,0-.08-0.77,0.81,0.81,0,0,1-.22-0.47,0.32,0.32,0,0,1,.28-0.34c0.44,0,.48,1.12.48,1.43C93.95,156.16,93.71,158.47,92.36,158.47Z" transform="translate(-52.75 -147.7)"/><path class="cls-1" d="M94.78,156.53c0-1.08.88-3.37,2.17-3.37a0.65,0.65,0,0,1,.67.72,3.44,3.44,0,0,1-1.86,2.34,2.46,2.46,0,0,0-.06.5,0.73,0.73,0,0,0,.78.88,3,3,0,0,0,2.29-1.67,0.52,0.52,0,0,1,.36-0.31,0.16,0.16,0,0,1,.17.13,0.64,0.64,0,0,1-.11.36,3.79,3.79,0,0,1-3.08,2.05A1.4,1.4,0,0,1,94.78,156.53Zm1-.77A2.74,2.74,0,0,0,97.1,154a0.23,0.23,0,0,0-.2-0.28C96.41,153.72,95.87,155.34,95.8,155.76Z" transform="translate(-52.75 -147.7)"/><path class="cls-1" d="M99.4,157.9a1,1,0,0,1-.72-1.13c0-1.3,1-3,2.23-3a0.79,0.79,0,0,1,.61.28c0-1.72.95-5.69,2.29-5.69,0.58,0,.67.88,0.67,1.3,0,1.68-1.24,4.53-2,6,0,0.35,0,1.86.52,1.86,1.1,0,1.89-2,2.22-2a0.18,0.18,0,0,1,.2.19,1.16,1.16,0,0,1-.24.53c-0.54.8-1.34,1.94-2.37,1.94-0.83,0-1.1-1.19-1.21-1.82C101.14,156.88,100.1,157.9,99.4,157.9Zm0-.77c0,0.08,0,.24.12,0.24a4.91,4.91,0,0,0,2-1.74c0-.35,0-0.68,0-1C100.41,154.6,99.35,156.13,99.35,157.13Zm3-2.4a15.35,15.35,0,0,0,1.57-5.21c0-.06,0-0.34-0.12-0.34-0.67,0-1.45,4.31-1.45,5.42v0.12Z" transform="translate(-52.75 -147.7)"/><path class="cls-1" d="M108.57,155.07a3.68,3.68,0,0,1-1.09,2.53,2.09,2.09,0,0,1-1.37.68c-1.12,0-1.27-1.52-1.27-2.34a22,22,0,0,1,1.57-7.41,1,1,0,0,1,.66-0.71,1.06,1.06,0,0,1,.42-0.12,0.24,0.24,0,0,1,.25.29,4.24,4.24,0,0,1-.35,1.19,21.45,21.45,0,0,0-1.3,4.47,14.9,14.9,0,0,0-.29,2.3c0,0.36,0,1.82.61,1.82a0.78,0.78,0,0,0,.52-0.28,3.53,3.53,0,0,0,.92-2.1,1,1,0,0,0-1.21-1.06,0.36,0.36,0,0,1-.28-0.34,0.4,0.4,0,0,1,.46-0.34c1.2,0,1.69-.13,2.21-0.18a0.26,0.26,0,0,1,.25.25c0,0.3-.76.4-1,0.42A1.58,1.58,0,0,1,108.57,155.07Z" transform="translate(-52.75 -147.7)"/><path class="cls-1" d="M109.64,156.53c0-1.08.88-3.37,2.17-3.37a0.65,0.65,0,0,1,.67.72,3.44,3.44,0,0,1-1.86,2.34,2.4,2.4,0,0,0-.06.5,0.73,0.73,0,0,0,.78.88,3,3,0,0,0,2.29-1.67,0.52,0.52,0,0,1,.36-0.31,0.16,0.16,0,0,1,.17.13,0.63,0.63,0,0,1-.11.36,3.79,3.79,0,0,1-3.08,2.05A1.4,1.4,0,0,1,109.64,156.53Zm1-.77A2.74,2.74,0,0,0,112,154a0.23,0.23,0,0,0-.2-0.28C111.27,153.72,110.73,155.34,110.66,155.76Z" transform="translate(-52.75 -147.7)"/><path class="cls-1" d="M114.69,154.71a6.31,6.31,0,0,1-1.15,2.15,0.49,0.49,0,0,1-.32.18,0.15,0.15,0,0,1-.16-0.16,0.47,0.47,0,0,1,.11-0.26,5,5,0,0,0,1-2.17,1.67,1.67,0,0,1-.31-1c0-.37.23-1.34,0.71-1.34s0.4,0.7.4,0.94a4.75,4.75,0,0,1,0,.58c0.37,0.56,1.43.61,1.43,1.68a2.07,2.07,0,0,1-.06.47,7.39,7.39,0,0,0-.24,1.69c0,0.16,0,.44.23,0.44,0.55,0,1.54-1.25,1.85-1.71a0.48,0.48,0,0,1,.31-0.26c0.14,0,.17.13,0.17,0.25a0.46,0.46,0,0,1-.1.25c-0.38.62-1.59,2-2.36,2s-0.84-1.12-.84-1.68,0.06-.88.06-1.32A0.86,0.86,0,0,0,114.69,154.71Z" transform="translate(-52.75 -147.7)"/><path class="cls-1" d="M119.88,154.63a3.72,3.72,0,0,0-1.06,2.05,0.38,0.38,0,0,0,.37.47c0.74,0,2.07-1.75,2.34-2.4a0.91,0.91,0,0,1,.71-0.62,0.42,0.42,0,0,1,.44.47c0,2.06-.19,7.76-3.14,7.76a1,1,0,0,1-.89-0.49,0.51,0.51,0,0,1-.07-0.23,0.28,0.28,0,0,1,.26-0.29c0.3,0,.2.52,0.65,0.52,1.54,0,2.15-4.16,2.15-5.33a8.73,8.73,0,0,0,0-1c-0.46.77-1.55,2.21-2.52,2.21a0.94,0.94,0,0,1-.87-1.13,3.79,3.79,0,0,1,1.13-2.46,3.13,3.13,0,0,1,2.23-.95c0.34,0,1.31.22,1.31,0.66a0.13,0.13,0,0,1-.13.12,3.5,3.5,0,0,0-1-.34A2.74,2.74,0,0,0,119.88,154.63Z" transform="translate(-52.75 -147.7)"/><path class="cls-2" d="M61.11,154.36c-0.2.07-2,4.62-3.26,4.62a0.73,0.73,0,0,1-.65-0.53,12.44,12.44,0,0,1-.43-4,0.16,0.16,0,0,0,0-.11,0.29,0.29,0,0,0-.06.12c-0.53,1.73-1.42,4.68-3.38,4.68-0.22,0-.55,0-0.55-0.31a0.23,0.23,0,0,1,.23-0.24l0.52,0.06c1.92,0,3.26-5.76,3.26-7.27a3,3,0,0,0-.13-1,0.15,0.15,0,0,1,0-.07,1.08,1.08,0,0,1,.9-0.56,0.8,0.8,0,0,1,.34.07,1.56,1.56,0,0,1,.26,1.09c0,0.2,0,.46,0,5.54a2,2,0,0,0,.2,1.26,1.2,1.2,0,0,0,.47-0.5c0.35-.55.65-1.13,0.95-1.7,0.44-.85.86-1.7,1.26-2.58a7,7,0,0,0,.52-1.25,1.18,1.18,0,0,1,.4-0.88,0.82,0.82,0,0,1,.29-0.06c0.28,0,.28.3,0.28,0.5a6.6,6.6,0,0,1-.12,1.08,20.83,20.83,0,0,0-.29,3.24c0,0.35.07,1.48,0.55,1.48,0.66,0,1.12-1,1.44-1.48a0.35,0.35,0,0,1,.28-0.2,0.19,0.19,0,0,1,.19.17,0.67,0.67,0,0,1-.1.3c-0.3.64-1.25,1.91-2,1.91-1.24,0-1.25-2.54-1.25-3.39A0,0,0,0,0,61.11,154.36Z" transform="translate(-52.75 -147.7)"/><path class="cls-2" d="M69,156.55c-0.44.62-1.32,1.71-2.16,1.71S66,157,66,156.41c-0.31.49-1,1.58-1.68,1.58s-0.72-.79-0.72-1.25c0-1.26,1.31-3.45,2.71-3.45a0.46,0.46,0,0,1,.4.37,0.18,0.18,0,0,1-.12.14,5.31,5.31,0,0,0-1.18.89,3.36,3.36,0,0,0-1,2.35c0,0.1,0,.29.16,0.29,0.54,0,1.55-2.12,1.78-2.61a0.47,0.47,0,0,1,.41-0.36,0.23,0.23,0,0,1,.28.19,3.33,3.33,0,0,1-.22.7,4.55,4.55,0,0,0-.18,1.33c0,0.25,0,1.18.38,1.18,0.56,0,1.46-1.19,1.79-1.62a0.6,0.6,0,0,1,.34-0.3,0.19,0.19,0,0,1,.19.23A1.23,1.23,0,0,1,69,156.55Z" transform="translate(-52.75 -147.7)"/><path class="cls-2" d="M69.94,154.71a6.3,6.3,0,0,1-1.15,2.15,0.49,0.49,0,0,1-.32.18,0.14,0.14,0,0,1-.16-0.16,0.46,0.46,0,0,1,.11-0.26,5,5,0,0,0,1-2.17,1.67,1.67,0,0,1-.31-1c0-.37.23-1.34,0.71-1.34s0.4,0.7.4,0.94a4.65,4.65,0,0,1,0,.58c0.37,0.56,1.43.61,1.43,1.68a2.1,2.1,0,0,1-.06.47,7.38,7.38,0,0,0-.24,1.69c0,0.16,0,.44.23,0.44,0.55,0,1.54-1.25,1.85-1.71a0.48,0.48,0,0,1,.31-0.26c0.14,0,.17.13,0.17,0.25a0.46,0.46,0,0,1-.1.25c-0.38.62-1.6,2-2.36,2s-0.84-1.12-.84-1.68,0.06-.88.06-1.32A0.86,0.86,0,0,0,69.94,154.71Z" transform="translate(-52.75 -147.7)"/><path class="cls-2" d="M74.38,158.72c0,0.22,0,.56-0.31.56a0.33,0.33,0,0,1-.31-0.34,13.32,13.32,0,0,1-.11-2.18,28.21,28.21,0,0,1,.36-4.38,23.11,23.11,0,0,1,.67-3.24,1.07,1.07,0,0,1,1-.91,0.28,0.28,0,0,1,.3.32,1.61,1.61,0,0,1-.12.53c-0.17.47-.29,1-0.5,1.83a34.74,34.74,0,0,0-.73,4.14c0.7-.73,1.45-1.39,2.18-2.09a0.86,0.86,0,0,1,.43-0.29,0.28,0.28,0,0,1,.25.28,0.7,0.7,0,0,1-.32.44c-0.83.67-1.6,1.4-2.36,2.13a6.5,6.5,0,0,1,.91.47,16,16,0,0,1,1.45.86,0.76,0.76,0,0,1,.37.54,0.2,0.2,0,0,1-.25.17,0.85,0.85,0,0,1-.37-0.12l-1.62-.85a5,5,0,0,0-.68-0.32A17.77,17.77,0,0,0,74.38,158.72Z" transform="translate(-52.75 -147.7)"/><path class="cls-2" d="M86.94,150.09c0-.24-0.43-0.24-0.59-0.24a4.6,4.6,0,0,0-.82.06c-0.76.13-2,.76-2,1.66,0,1.49,3.35,2.64,3.35,4.52s-2.9,2.19-4.27,2.19a5.66,5.66,0,0,1-.64,0c-0.2,0-.9,0-0.9-0.35s0.17-.26.38-0.26c0.4,0,.78.16,1.18,0.16,0.86,0,3.38-.26,3.38-1.45,0-1.34-3.61-2.47-3.61-4.63,0-1.9,2.82-2.25,4.23-2.25,0.44,0,1.3.1,1.3,0.7a1.14,1.14,0,0,1-.36.8,2.16,2.16,0,0,1-1.09.55,0.29,0.29,0,0,1-.31-0.3C86.15,150.81,86.94,150.46,86.94,150.09Z" transform="translate(-52.75 -147.7)"/><path class="cls-2" d="M92.36,158.47a1,1,0,0,1-.71-0.32,5,5,0,0,1-.59-2.4S89.31,158,88.55,158c-0.6,0-.65-0.61-0.65-1.07a8.49,8.49,0,0,1,.92-3,0.63,0.63,0,0,1,.54-0.25,0.32,0.32,0,0,1,.38.26,0.58,0.58,0,0,1-.08.24,7.11,7.11,0,0,0-.83,2.87s0,0.17.07,0.17a1.76,1.76,0,0,0,.7-0.5,9.75,9.75,0,0,0,1.14-1.38c0.13-.2.29-0.49,0.41-0.66a0.5,0.5,0,0,1,.44-0.16c0.32,0,.35.3,0.35,0.55,0,0.41.22,2.73,0.68,2.73,0.64,0,.86-2,0.86-2.49a2.64,2.64,0,0,0-.08-0.77,0.81,0.81,0,0,1-.22-0.47,0.32,0.32,0,0,1,.28-0.34c0.44,0,.48,1.12.48,1.43C93.95,156.16,93.71,158.47,92.36,158.47Z" transform="translate(-52.75 -147.7)"/><path class="cls-2" d="M94.78,156.53c0-1.08.88-3.37,2.17-3.37a0.65,0.65,0,0,1,.67.72,3.44,3.44,0,0,1-1.86,2.34,2.46,2.46,0,0,0-.06.5,0.73,0.73,0,0,0,.78.88,3,3,0,0,0,2.29-1.67,0.52,0.52,0,0,1,.36-0.31,0.16,0.16,0,0,1,.17.13,0.64,0.64,0,0,1-.11.36,3.79,3.79,0,0,1-3.08,2.05A1.4,1.4,0,0,1,94.78,156.53Zm1-.77A2.74,2.74,0,0,0,97.1,154a0.23,0.23,0,0,0-.2-0.28C96.41,153.72,95.87,155.34,95.8,155.76Z" transform="translate(-52.75 -147.7)"/><path class="cls-2" d="M99.4,157.9a1,1,0,0,1-.72-1.13c0-1.3,1-3,2.23-3a0.79,0.79,0,0,1,.61.28c0-1.72.95-5.69,2.29-5.69,0.58,0,.67.88,0.67,1.3,0,1.68-1.24,4.53-2,6,0,0.35,0,1.86.52,1.86,1.1,0,1.89-2,2.22-2a0.18,0.18,0,0,1,.2.19,1.16,1.16,0,0,1-.24.53c-0.54.8-1.34,1.94-2.37,1.94-0.83,0-1.1-1.19-1.21-1.82C101.14,156.88,100.1,157.9,99.4,157.9Zm0-.77c0,0.08,0,.24.12,0.24a4.91,4.91,0,0,0,2-1.74c0-.35,0-0.68,0-1C100.41,154.6,99.35,156.13,99.35,157.13Zm3-2.4a15.35,15.35,0,0,0,1.57-5.21c0-.06,0-0.34-0.12-0.34-0.67,0-1.45,4.31-1.45,5.42v0.12Z" transform="translate(-52.75 -147.7)"/><path class="cls-2" d="M108.57,155.07a3.68,3.68,0,0,1-1.09,2.53,2.09,2.09,0,0,1-1.37.68c-1.12,0-1.27-1.52-1.27-2.34a22,22,0,0,1,1.57-7.41,1,1,0,0,1,.66-0.71,1.06,1.06,0,0,1,.42-0.12,0.24,0.24,0,0,1,.25.29,4.24,4.24,0,0,1-.35,1.19,21.45,21.45,0,0,0-1.3,4.47,14.9,14.9,0,0,0-.29,2.3c0,0.36,0,1.82.61,1.82a0.78,0.78,0,0,0,.52-0.28,3.53,3.53,0,0,0,.92-2.1,1,1,0,0,0-1.21-1.06,0.36,0.36,0,0,1-.28-0.34,0.4,0.4,0,0,1,.46-0.34c1.2,0,1.69-.13,2.21-0.18a0.26,0.26,0,0,1,.25.25c0,0.3-.76.4-1,0.42A1.58,1.58,0,0,1,108.57,155.07Z" transform="translate(-52.75 -147.7)"/><path class="cls-2" d="M109.64,156.53c0-1.08.88-3.37,2.17-3.37a0.65,0.65,0,0,1,.67.72,3.44,3.44,0,0,1-1.86,2.34,2.4,2.4,0,0,0-.06.5,0.73,0.73,0,0,0,.78.88,3,3,0,0,0,2.29-1.67,0.52,0.52,0,0,1,.36-0.31,0.16,0.16,0,0,1,.17.13,0.63,0.63,0,0,1-.11.36,3.79,3.79,0,0,1-3.08,2.05A1.4,1.4,0,0,1,109.64,156.53Zm1-.77A2.74,2.74,0,0,0,112,154a0.23,0.23,0,0,0-.2-0.28C111.27,153.72,110.73,155.34,110.66,155.76Z" transform="translate(-52.75 -147.7)"/><path class="cls-2" d="M114.69,154.71a6.31,6.31,0,0,1-1.15,2.15,0.49,0.49,0,0,1-.32.18,0.15,0.15,0,0,1-.16-0.16,0.47,0.47,0,0,1,.11-0.26,5,5,0,0,0,1-2.17,1.67,1.67,0,0,1-.31-1c0-.37.23-1.34,0.71-1.34s0.4,0.7.4,0.94a4.75,4.75,0,0,1,0,.58c0.37,0.56,1.43.61,1.43,1.68a2.07,2.07,0,0,1-.06.47,7.39,7.39,0,0,0-.24,1.69c0,0.16,0,.44.23,0.44,0.55,0,1.54-1.25,1.85-1.71a0.48,0.48,0,0,1,.31-0.26c0.14,0,.17.13,0.17,0.25a0.46,0.46,0,0,1-.1.25c-0.38.62-1.59,2-2.36,2s-0.84-1.12-.84-1.68,0.06-.88.06-1.32A0.86,0.86,0,0,0,114.69,154.71Z" transform="translate(-52.75 -147.7)"/><path class="cls-2" d="M119.88,154.63a3.72,3.72,0,0,0-1.06,2.05,0.38,0.38,0,0,0,.37.47c0.74,0,2.07-1.75,2.34-2.4a0.91,0.91,0,0,1,.71-0.62,0.42,0.42,0,0,1,.44.47c0,2.06-.19,7.76-3.14,7.76a1,1,0,0,1-.89-0.49,0.51,0.51,0,0,1-.07-0.23,0.28,0.28,0,0,1,.26-0.29c0.3,0,.2.52,0.65,0.52,1.54,0,2.15-4.16,2.15-5.33a8.73,8.73,0,0,0,0-1c-0.46.77-1.55,2.21-2.52,2.21a0.94,0.94,0,0,1-.87-1.13,3.79,3.79,0,0,1,1.13-2.46,3.13,3.13,0,0,1,2.23-.95c0.34,0,1.31.22,1.31,0.66a0.13,0.13,0,0,1-.13.12,3.5,3.5,0,0,0-1-.34A2.74,2.74,0,0,0,119.88,154.63Z" transform="translate(-52.75 -147.7)"/></svg>