<svg id="Layer_1" data-name="Layer 1" xmlns="http://www.w3.org/2000/svg" viewBox="0 0 100 100"><title>Artboard 1</title><path d="M0,100Q0,50,0,0H100q0,50,0,100ZM4.1,4V95.81H95.9V4Z"/><path d="M39.07,66V34.17H34.21l-.74,6.46c-3.81,0-7.59.19-11.33-.13a3.88,3.88,0,0,1-2.66-2.65,127.31,127.31,0,0,1,0-15.47c.08-1.08,2.2-2.89,3.39-2.9,18-.19,36-.1,54-.17,2.8,0,3.88,1.07,3.81,3.85-.12,4.66.22,9.35-.2,14-.11,1.27-2,2.75-3.47,3.41-1.24.57-3,0-4.44.16-4.59.53-7.74-.39-6.29-6.54L61,33.91V65.18c2.16.92,5.64,1.48,5.86,2.65.69,3.67.26,7.57,0,11.36,0,.56-1.79,1.39-2.75,1.4-9.33.11-18.66.18-28-.08-1.15,0-2.59-1.82-3.27-3.13-.55-1.06-.06-2.62-.18-3.94C32.18,68.84,32.42,64.82,39.07,66Zm-1.69,9.69h25.2V71.07c-6.44-.88-6.44-.88-6.44-7.23,0-10-.06-20,.07-30,0-1.43.87-4,1.54-4.08a37.76,37.76,0,0,1,11.36.13c1.12.23,1.56,3.78,2.46,6.2l4.19-.26V24.2H24.17V36.13l5.29-.25c-1.24-6,1.79-7.11,6.43-6.51a14.49,14.49,0,0,0,3.49,0C42.92,29,44,30.55,43.91,34c-.17,9.82-.24,19.64,0,29.46.12,4.73.06,8.62-6.55,7.12Z"/></svg>