<svg id="Layer_1" data-name="Layer 1" xmlns="http://www.w3.org/2000/svg" viewBox="0 0 100 98"><title>Artboard 1</title><path d="M34.62,99C28.53,90.91,22.5,82.79,16.35,74.76c-3.88-5.06-4.24-9.17-.84-12.45,3-2.88,7.82-2.54,12.25.89,2,1.51,3.89,3.06,6.79,5.34.21-2.61.45-4.27.45-5.93,0-11.49-.21-23,.16-34.46A12.36,12.36,0,0,1,38.67,20c1.62-1.43,5.63-1.66,7.69-.63s4,4.15,4.25,6.56c.63,5.23.2,10.58.2,16.24,5.55-.55,10.55-.44,12.13,6.26,5.6-1.36,10.17-.5,12,5.51,10-.28,12.56,1.9,11.91,11.83-.6,9.23-2,18.41-3.41,27.56-.3,2-1.86,3.79-2.85,5.68Zm4.15-52.4c0,6.67.15,13.33-.05,20-.13,4.25-3.59,6.19-7.29,4.13-2.16-1.2-3.78-3.5-6-4.38S19.53,64.5,18,65.61c-2.74,2-.29,4.7,1.33,6.83,5.21,6.83,10.31,13.75,15.71,20.44,1.2,1.48,3.4,3,5.17,3,11.83.27,23.66.19,35.49.06,1.23,0,3.22-.87,3.56-1.81,3.94-10.82,4.8-22.07,3.62-33.44-.34-3.28-3.83-4-6.58-2.06a26.73,26.73,0,0,1-3.95,2,32.09,32.09,0,0,0-1.06-4c-.64-1.6-1.21-4-2.39-4.4-1.41-.5-3.44.69-5.19,1.19-1.17.34-2.71,1.39-3.37,1-.82-.51-.89-2.21-1.32-3.39-.58-1.61-.84-4.18-1.89-4.57-1.49-.55-3.59.44-5.41.9-1.19.3-2.32.82-3.48,1.24-.42-1.36-1.18-2.71-1.22-4.07-.13-5.49-.1-11,0-16.49,0-2.91-.36-5.77-3.82-5.87-3.69-.1-4.43,2.84-4.43,5.95Q38.79,37.35,38.76,46.6Z"/><path d="M47.62-1c8.27,2.81,16.08,6.29,20.75,14.3,5.33,9.14,5.91,18.56,1.14,28-.67,1.33-2.85,1.89-4.33,2.81,0-1.54-.4-3.3.2-4.58,5.69-12,1.5-25.89-10-32.43a25.4,25.4,0,0,0-33.84,8.33c-7.13,11-4.19,25.07,6.75,33.14a13.75,13.75,0,0,1,3.92,5.61c-8.78-1.07-16.67-10-18.61-19.81-3-15.33,6-29.77,21.29-34.15,1.25-.36,2.47-.83,3.7-1.24Z"/><path d="M54.78,38.06c4.31-8,4.11-13.88-.47-19.23a15.33,15.33,0,0,0-16.85-4.16A14.86,14.86,0,0,0,29.78,36c1.24,2.26,1.8,4.89,3.09,8.54-8.66-5.09-11.74-14-8.83-22.36A20.26,20.26,0,0,1,45.34,9.14C58.14,10.91,66,23.79,61.48,35.4,60.18,38.74,58.37,39.87,54.78,38.06Z"/></svg>