<svg id="Layer_1" data-name="Layer 1" xmlns="http://www.w3.org/2000/svg" viewBox="0 0 100 100"><title>Artboard 1</title><path d="M0,84C8.62,77.25,17.55,70.8,25,60.93c-2.95,0-4.72.52-5.83-.12-1.86-1.06-3.31-2.86-4.93-4.35,1.72-1.4,3.28-3.1,5.22-4.09,1.19-.61,3,.17,4.42-.19,1.7-.44,4.19-1.07,4.66-2.27.84-2.15,1.5-5.62.37-7.09-7.62-9.91-3.95-24,7.83-29.9.59-.3,1.16-.63,2-1.09a35.17,35.17,0,0,1,.05-5.76c.63-3.82,3.25-5,6.92-4.81s5.37,2.22,5,5.44c-.48,4,1.76,5.45,4.53,7.66,4,3.2,7.08,7.62,10.82,11.83,7.72-6.73,16.09-13.94,24.34-21.28C95.06.76,96.49.83,100,6V87c-2.29,1.28-4.48,3.39-6.88,3.68-4.87.58-9.85.17-14.82.17,0,.88,0,1.21,0,1.53-.24,2.12-.49,4.23-.73,6.34-1.61-1.43-3.86-2.56-4.67-4.34-1.35-3-3.22-3.62-6.2-3.59-13.47.13-26.95.18-40.42,0-4.55-.06-8.51-.14-10.13,5.39-.33,1.14-2.75,1.68-4.21,2.5-.31-1.55-.73-3.09-.89-4.66a4.9,4.9,0,0,1,.22-1.81L0,88Zm95.75-6.72L85,76.49,85,74.56a63,63,0,0,0,7-.5c1.36-.24,2.61-1.17,3.9-1.79-1.19-.57-2.35-1.23-3.58-1.67a35.53,35.53,0,0,0-3.66-.92L88.75,68a45.74,45.74,0,0,0,5-.62A7.73,7.73,0,0,0,95.92,66c-.73-.66-1.37-1.66-2.22-1.9a29.42,29.42,0,0,0-4.87-.55l-.09-1.43c.93-.33,1.87-.62,2.78-1,1.48-.59,2.94-1.22,4.41-1.83a29.62,29.62,0,0,0-4.56-1.62c-2.1-.39-4.26-.42-6.4-.6L85.1,55a71,71,0,0,0,7.56-.46c1.17-.19,2.2-1.24,3.29-1.91A25.85,25.85,0,0,0,92.87,51c-1.34-.51-2.77-.79-4.16-1.18L89,48.49c.77-.17,1.55-.29,2.3-.53,1.55-.49,3.07-1,4.61-1.58-1.45-.61-2.89-1.22-4.35-1.82-1-.41-2-.79-3-1.18l.24-1.46a24.49,24.49,0,0,0,4.09-.51,14.82,14.82,0,0,0,3-1.67c-1-.59-1.93-1.54-3-1.69-2-.28-4,.05-6-.18-.78-.09-1.46-1-2.19-1.56L85.18,35A53,53,0,0,0,92,34.88c1.36-.18,2.62-1.13,3.93-1.73-1.21-.52-2.39-1.11-3.62-1.55s-2.41-.68-3.62-1l.12-1.7a41.16,41.16,0,0,0,5-.54c.79-.17,1.44-1,2.15-1.51-.76-.64-1.42-1.56-2.3-1.86a36.43,36.43,0,0,0-4.92-1l.17-1.51,6.73-1.07V6.49c-10.9,11.88-27,17.95-33.71,34-2.12,5.11-1.64,7.89,1.12,12.34L80.55,37.61v36l-9.39.65c1.54,4.15,2.7,7.59,4.14,10.9a3.55,3.55,0,0,0,2.54,1.83c5.93.16,11.87.08,17.91.08ZM68.42,79.6l.64-.42-7.94-21,11.09-1-.12-1.58c-2.76,0-5.53,0-8.29,0-5.39.08-5.14-4.83-7-7.87-1.33-2.19-1.17-3.79.84-6,7.17-8,4.25-21.32-5.58-25.48C48.6,14.71,47,13,47.4,9.26S46,4.58,43,5.92c-1.66,3.28,1.73,8-3.7,9.56C27.23,18.9,25.5,34.59,32,41.52c3.74,4,.69,7.35-.82,10.4-.89,1.8-3.93,2.88-6.22,3.53s-4.84.37-7.27.5l.07,1.79H29L21.46,77.37C25.26,72.53,28.07,67.2,31,62c3.07-5.4,5.56-5.86,10.09-1.69,2.52,2.32,4.63,2.72,7.35.32,5-4.44,7.5-4,10.76,1.93C62.37,68.18,65.37,73.91,68.42,79.6ZM39.51,73.86l9.61-8.64c-4.27,1.87-7-.28-10-2.71-1-.8-4.19-.75-4.6,0C30,70.27,25.85,78.29,21.34,86.74H68.28a73.36,73.36,0,0,1-3.43-7.11c-1.65-4.64-4.72-6.26-9.58-5.86S45.76,73.86,39.51,73.86ZM71.57,50.53l4.07,6.94-9,5.08c1.52,7.66,2.5,8.42,10.1,6.7V46.34ZM3.65,86.73c10.57.75,13.06-1.53,14.16-12.43ZM56.36,63.92l-6.22,5.72h9.06Z"/><path d="M44.85,41.9c-5.84,0-11.36-5.5-11.23-11.1C33.76,25,39.16,20,45.2,20.12a10.89,10.89,0,1,1-.35,21.77Zm.29-18.41c-5-.06-8,2.63-8.2,7.29A8.22,8.22,0,0,0,44.68,39a7.54,7.54,0,0,0,7.93-7.73C52.72,26.23,50.15,23.54,45.14,23.48Z"/><path d="M54.75,52.82c-.68,1.12-1,2.24-1.49,2.33-1,.19-2.54.25-3.22-.35-3.51-3.12-6.75-2.75-10.3-.06-.78.59-2.39.1-3.61.11a13,13,0,0,1,.61-3.6c1.83-3.78,7.29-5.82,12.73-4C51.59,48,53,50.87,54.75,52.82Z"/></svg>