<svg id="Layer_1" data-name="Layer 1" xmlns="http://www.w3.org/2000/svg" viewBox="0 0 849 243"><defs><style>.cls-1{fill:#fff;}</style></defs><title>Artboard 1</title><path d="M1,119c1.67-13.55,3.59-27.08,9.16-39.68,20.77-46.94,56.46-74,107.93-77.21,65-4,119.49,41.07,129.64,105.48,9,57.11-26.17,115.56-80.86,134.39-7.82,2.69-11,.5-11-7.66,0-9.5-.1-19,0-28.49.12-9.21-1.28-17.91-8-25.68,4.7-.87,8.89-1.48,13-2.43,27.44-6.37,41.48-23.87,43-53.1.71-13.65-2.23-26.06-10.89-36.93a6.28,6.28,0,0,1-.79-4.87c2.4-8.82,1.61-17.42-.88-26.08-.93-3.23-2.53-4.23-5.71-3.87-9.56,1.07-17.56,5.79-25.75,10.29a12.87,12.87,0,0,1-8.21,1.41,118.52,118.52,0,0,0-52.95.14c-3.34.78-5.84,0-8.85-1.45-7.72-3.76-15.67-7.09-23.71-10.13-4-1.52-6.7.19-7.8,4.82-2,8.42-2.57,16.71-.39,25.18a6,6,0,0,1-.91,4.82c-17.77,19.62-11.43,59.16,2.59,73.83,10,10.45,22.53,14.91,36.2,17.3l5.12.9c-2,5-3.9,9.94-6,14.73a6.08,6.08,0,0,1-2.77,3c-12.83,5.5-25.5,1.59-33-10.31-3.58-5.67-7.84-10.53-14.37-12.46-3.24-1-6.85-.62-10.3-.87l-.69,2c1.54,1.56,3.18,3,4.62,4.69,4.21,4.82,10,9.06,12.18,14.69,6.76,17.68,23.07,21.63,38.9,19.19,1.31-.2,2.62-.38,4.57-.65,0,8.47.37,16.71-.16,24.9-.25,3.94-4.55,5.17-9.78,3.4A117.31,117.31,0,0,1,41.6,216.84C18.21,195.09,4.75,168.33,1.84,136.4c-.17-1.81-.56-3.6-.84-5.4Z"/><path d="M850,149c-.63,4.94-1.13,9.9-1.9,14.82-4.58,29.09-20.75,36-46.45,32.58a46.92,46.92,0,0,1-11-3.15c-3.51-1.4-6.76-3.43-10.68-5.47.52,7.18-4,7.42-9.1,7.06a50.92,50.92,0,0,0-8.49,0c-4.89.47-6.28-1.64-6.26-6.37.14-39.16.08-78.32.08-117.48,0-4.5.25-9-.07-13.49-.33-4.68,1.09-6.7,6.12-6.39a160.19,160.19,0,0,0,19,0c4.74-.27,6.43,1.17,6.3,6.1-.32,12.16-.1,24.33-.1,36.49,0,1.81,0,3.62,0,6,3.34-1.26,6.12-2.9,9.07-3.3,7.69-1,15.55-2.69,23.15-2,15,1.34,24.79,12,28.22,28.78.87,4.22,1.41,8.51,2.1,12.77Zm-63-3.47v12c0,11.5,1.33,13,12.93,14.28a34.92,34.92,0,0,0,6.48,0c5.16-.4,9-3,10.35-8,3-11.62,3.67-23.4,0-35-2.2-7-7.8-10.46-15.09-9.59a44,44,0,0,0-11.5,3.09,6.39,6.39,0,0,0-3.06,4.7C786.75,133.19,787,139.37,787,145.53Z"/><path d="M368,167.2V138.12c-5.46,0-10.74-.1-16,0-3,.08-4.22-.94-4.15-4q.23-9.74,0-19.49c-.08-3.11,1.31-4.11,4.17-4.1,14.33,0,28.66.06,43,0,3.15,0,4.5,1.11,4.49,4.37q-.1,33.74,0,67.48c0,3.49-1.84,5-4.51,6.39a81,81,0,0,1-43.57,8.47c-8.55-.69-17.33-1.88-25.39-4.64-19-6.51-29.42-21.17-33.75-40.17a129.41,129.41,0,0,1,1.76-66.18c7.36-25,25.59-39,51.7-40.19,14.18-.63,28.32-.33,41.92,4.57,6.23,2.24,6.45,2.71,5,9C391.39,64.8,390,70,389,75.18c-.7,3.65-2.15,4.07-5.84,3.52-10.3-1.52-20.8-3.51-31.08-2.92-16.72,1-25.56,9.46-29.15,25.86-3.44,15.69-3.48,31.44,1.76,46.83,4.47,13.11,13.67,19.52,27.56,19.51C357.36,168,362.48,167.49,368,167.2Z"/><path d="M608.87,133.26H567.8v5.2q0,25,0,50c0,6.17-.16,6.33-6.54,6.35-6.16,0-12.34-.26-18.49.09-4.87.28-6.31-1.56-6.29-6.31.15-33.49.08-67,.08-100.46,0-10.5.12-21-.06-31.49-.07-4,1.18-5.69,5.46-5.5,7,.31,14,.22,21,0,3.73-.1,4.94,1.37,4.91,5-.13,15-.06,30,0,45,0,1,.14,2,.25,3.35h40.81c0-1.95,0-3.72,0-5.5,0-14.16.14-28.32-.09-42.48-.07-4.26,1.46-5.5,5.5-5.36,7,.24,14,.17,21,0,3.35-.07,4.76,1,4.75,4.58q-.13,67.22,0,134.44c0,3.14-1.05,4.65-4.29,4.62-7.5-.06-15-.09-22.49,0-3.55,0-4.44-1.64-4.41-4.93.12-17,.05-34,.05-51C608.87,137.12,608.87,135.33,608.87,133.26Z"/><path d="M720.9,189.93c-9.74,2.52-19.06,5.37-28.58,7.21-4.44.86-9.34.23-13.9-.49-16.22-2.57-24.91-11.86-25.3-28.37-.53-22.48-.16-45-.29-67.46,0-3.14,1.3-4,4.19-4,7.49.11,15,.17,22.49,0,3.58-.09,4.54,1.36,4.52,4.74-.12,18.49-.09,37,0,55.47,0,2.64-.22,5.68,1,7.81,1.46,2.65,3.91,5.73,6.56,6.53,6.47,1.94,12.92.2,18.61-3.32,1.21-.75,1.81-3.32,1.82-5.05.12-20.16.19-40.32,0-60.47,0-4.31,1.07-6,5.58-5.75,6.81.34,13.66.22,20.48,0,3.55-.1,5,.92,5,4.77q-.19,44.23,0,88.46c0,3.43-1.19,4.91-4.64,4.77a99.5,99.5,0,0,0-10.49,0C723.54,195.13,720.51,194.12,720.9,189.93Z"/><path d="M501.79,96.87c6,0,11.31.21,16.59-.07,4-.22,5.79.9,5.49,5.25a119,119,0,0,0,0,15c.25,4.3-1.18,6.09-5.65,5.83-5.27-.3-10.57-.07-16.28-.07,0,14-.25,27.42.23,40.85.08,2.33,2.83,5.17,5.08,6.65,2,1.33,5.07,1.45,7.68,1.52,9.21.22,9.21.12,9.21,9.18,0,1,0,2,0,3-.22,11.48,2.18,10.74-10.75,12.5a64.39,64.39,0,0,1-21.25-1.18c-11.67-2.4-18.31-10.48-20.06-22.12a137.45,137.45,0,0,1-1-18.42c-.15-10.46,0-20.92,0-32-4,0-7.64-.09-11.25,0-3.26.11-5-.91-4.8-4.56.22-4.49-.2-9,.2-13.48a5.66,5.66,0,0,1,3.12-3.92c3.89-1.41,8-2.18,12.53-3.32V68.87H489c12.76,0,12.76,0,12.76,12.75C501.79,86.44,501.79,91.26,501.79,96.87Z"/><path d="M445.45,145.54c0,14.32-.12,28.64.07,43,.06,4.52-1.43,6.25-6.07,6-6.81-.33-13.65-.17-20.48-.06-3.41.06-4.79-1.4-4.78-4.76q.06-44.21,0-88.42c0-3.56,1.45-4.57,4.81-4.48,7.16.19,14.33.29,21.48,0,4.19-.19,5.07,1.63,5,5.29C445.38,116.57,445.45,131.05,445.45,145.54Z"/><path d="M447.13,71.66c0,9.95-7.44,17.52-17.19,17.44a17.17,17.17,0,0,1-17-17.24,17.1,17.1,0,1,1,34.19-.19Z"/><path class="cls-1" d="M1,119c1.67-13.55,3.59-27.08,9.16-39.68,20.77-46.94,56.46-74,107.93-77.21,65-4,119.49,41.07,129.64,105.48,9,57.11-26.17,115.56-80.86,134.39-7.82,2.69-11,.5-11-7.66,0-9.5-.1-19,0-28.49.12-9.21-1.28-17.91-8-25.68,4.7-.87,8.89-1.48,13-2.43,27.44-6.37,41.48-23.87,43-53.1.71-13.65-2.23-26.06-10.89-36.93a6.28,6.28,0,0,1-.79-4.87c2.4-8.82,1.61-17.42-.88-26.08-.93-3.23-2.53-4.23-5.71-3.87-9.56,1.07-17.56,5.79-25.75,10.29a12.87,12.87,0,0,1-8.21,1.41,118.52,118.52,0,0,0-52.95.14c-3.34.78-5.84,0-8.85-1.45-7.72-3.76-15.67-7.09-23.71-10.13-4-1.52-6.7.19-7.8,4.82-2,8.42-2.57,16.71-.39,25.18a6,6,0,0,1-.91,4.82c-17.77,19.62-11.43,59.16,2.59,73.83,10,10.45,22.53,14.91,36.2,17.3l5.12.9c-2,5-3.9,9.94-6,14.73a6.08,6.08,0,0,1-2.77,3c-12.83,5.5-25.5,1.59-33-10.31-3.58-5.67-7.84-10.53-14.37-12.46-3.24-1-6.85-.62-10.3-.87l-.69,2c1.54,1.56,3.18,3,4.62,4.69,4.21,4.82,10,9.06,12.18,14.69,6.76,17.68,23.07,21.63,38.9,19.19,1.31-.2,2.62-.38,4.57-.65,0,8.47.37,16.71-.16,24.9-.25,3.94-4.55,5.17-9.78,3.4A117.31,117.31,0,0,1,41.6,216.84C18.21,195.09,4.75,168.33,1.84,136.4c-.17-1.81-.56-3.6-.84-5.4Z"/><path class="cls-1" d="M850,149c-.63,4.94-1.13,9.9-1.9,14.82-4.58,29.09-20.75,36-46.45,32.58a46.92,46.92,0,0,1-11-3.15c-3.51-1.4-6.76-3.43-10.68-5.47.52,7.18-4,7.42-9.1,7.06a50.92,50.92,0,0,0-8.49,0c-4.89.47-6.28-1.64-6.26-6.37.14-39.16.08-78.32.08-117.48,0-4.5.25-9-.07-13.49-.33-4.68,1.09-6.7,6.12-6.39a160.19,160.19,0,0,0,19,0c4.74-.27,6.43,1.17,6.3,6.1-.32,12.16-.1,24.33-.1,36.49,0,1.81,0,3.62,0,6,3.34-1.26,6.12-2.9,9.07-3.3,7.69-1,15.55-2.69,23.15-2,15,1.34,24.79,12,28.22,28.78.87,4.22,1.41,8.51,2.1,12.77Zm-63-3.47v12c0,11.5,1.33,13,12.93,14.28a34.92,34.92,0,0,0,6.48,0c5.16-.4,9-3,10.35-8,3-11.62,3.67-23.4,0-35-2.2-7-7.8-10.46-15.09-9.59a44,44,0,0,0-11.5,3.09,6.39,6.39,0,0,0-3.06,4.7C786.75,133.19,787,139.37,787,145.53Z"/><path class="cls-1" d="M368,167.2V138.12c-5.46,0-10.74-.1-16,0-3,.08-4.22-.94-4.15-4q.23-9.74,0-19.49c-.08-3.11,1.31-4.11,4.17-4.1,14.33,0,28.66.06,43,0,3.15,0,4.5,1.11,4.49,4.37q-.1,33.74,0,67.48c0,3.49-1.84,5-4.51,6.39a81,81,0,0,1-43.57,8.47c-8.55-.69-17.33-1.88-25.39-4.64-19-6.51-29.42-21.17-33.75-40.17a129.41,129.41,0,0,1,1.76-66.18c7.36-25,25.59-39,51.7-40.19,14.18-.63,28.32-.33,41.92,4.57,6.23,2.24,6.45,2.71,5,9C391.39,64.8,390,70,389,75.18c-.7,3.65-2.15,4.07-5.84,3.52-10.3-1.52-20.8-3.51-31.08-2.92-16.72,1-25.56,9.46-29.15,25.86-3.44,15.69-3.48,31.44,1.76,46.83,4.47,13.11,13.67,19.52,27.56,19.51C357.36,168,362.48,167.49,368,167.2Z"/><path class="cls-1" d="M608.87,133.26H567.8v5.2q0,25,0,50c0,6.17-.16,6.33-6.54,6.35-6.16,0-12.34-.26-18.49.09-4.87.28-6.31-1.56-6.29-6.31.15-33.49.08-67,.08-100.46,0-10.5.12-21-.06-31.49-.07-4,1.18-5.69,5.46-5.5,7,.31,14,.22,21,0,3.73-.1,4.94,1.37,4.91,5-.13,15-.06,30,0,45,0,1,.14,2,.25,3.35h40.81c0-1.95,0-3.72,0-5.5,0-14.16.14-28.32-.09-42.48-.07-4.26,1.46-5.5,5.5-5.36,7,.24,14,.17,21,0,3.35-.07,4.76,1,4.75,4.58q-.13,67.22,0,134.44c0,3.14-1.05,4.65-4.29,4.62-7.5-.06-15-.09-22.49,0-3.55,0-4.44-1.64-4.41-4.93.12-17,.05-34,.05-51C608.87,137.12,608.87,135.33,608.87,133.26Z"/><path class="cls-1" d="M720.9,189.93c-9.74,2.52-19.06,5.37-28.58,7.21-4.44.86-9.34.23-13.9-.49-16.22-2.57-24.91-11.86-25.3-28.37-.53-22.48-.16-45-.29-67.46,0-3.14,1.3-4,4.19-4,7.49.11,15,.17,22.49,0,3.58-.09,4.54,1.36,4.52,4.74-.12,18.49-.09,37,0,55.47,0,2.64-.22,5.68,1,7.81,1.46,2.65,3.91,5.73,6.56,6.53,6.47,1.94,12.92.2,18.61-3.32,1.21-.75,1.81-3.32,1.82-5.05.12-20.16.19-40.32,0-60.47,0-4.31,1.07-6,5.58-5.75,6.81.34,13.66.22,20.48,0,3.55-.1,5,.92,5,4.77q-.19,44.23,0,88.46c0,3.43-1.19,4.91-4.64,4.77a99.5,99.5,0,0,0-10.49,0C723.54,195.13,720.51,194.12,720.9,189.93Z"/><path class="cls-1" d="M501.79,96.87c6,0,11.31.21,16.59-.07,4-.22,5.79.9,5.49,5.25a119,119,0,0,0,0,15c.25,4.3-1.18,6.09-5.65,5.83-5.27-.3-10.57-.07-16.28-.07,0,14-.25,27.42.23,40.85.08,2.33,2.83,5.17,5.08,6.65,2,1.33,5.07,1.45,7.68,1.52,9.21.22,9.21.12,9.21,9.18,0,1,0,2,0,3-.22,11.48,2.18,10.74-10.75,12.5a64.39,64.39,0,0,1-21.25-1.18c-11.67-2.4-18.31-10.48-20.06-22.12a137.45,137.45,0,0,1-1-18.42c-.15-10.46,0-20.92,0-32-4,0-7.64-.09-11.25,0-3.26.11-5-.91-4.8-4.56.22-4.49-.2-9,.2-13.48a5.66,5.66,0,0,1,3.12-3.92c3.89-1.41,8-2.18,12.53-3.32V68.87H489c12.76,0,12.76,0,12.76,12.75C501.79,86.44,501.79,91.26,501.79,96.87Z"/><path class="cls-1" d="M445.45,145.54c0,14.32-.12,28.64.07,43,.06,4.52-1.43,6.25-6.07,6-6.81-.33-13.65-.17-20.48-.06-3.41.06-4.79-1.4-4.78-4.76q.06-44.21,0-88.42c0-3.56,1.45-4.57,4.81-4.48,7.16.19,14.33.29,21.48,0,4.19-.19,5.07,1.63,5,5.29C445.38,116.57,445.45,131.05,445.45,145.54Z"/><path class="cls-1" d="M447.13,71.66c0,9.95-7.44,17.52-17.19,17.44a17.17,17.17,0,0,1-17-17.24,17.1,17.1,0,1,1,34.19-.19Z"/></svg>