<svg id="Layer_1" data-name="Layer 1" xmlns="http://www.w3.org/2000/svg" viewBox="0 0 1980 1432"><defs><style>.cls-1{fill:#ddd;}.cls-2{fill:#eee;}.cls-3{fill:#fff;}</style></defs><title>Artboard 1</title><path class="cls-1" d="M1755.3,1433c-.08-2.16-.22-4.32-.22-6.48q-.09-453.53-.17-907.07c0-2.5-.09-5-.14-7.49q0-2.47,0-4.94,0-21,0-42.06,0-2.47,0-4.93,0-39,0-78.07,0-3.46,0-6.92l.16-2,90.36-64.62q61.19-43.75,122.41-87.47c3.9-2.78,8-5.31,12-8,.07,1.83.2,3.66.2,5.48q.09,524.74,0,1049.48c0,28.54-3.47,56.94-14.81,83.63-10.53,24.79-28.23,42.82-52.21,55.22-20.12,10.41-41.62,16.06-63.62,19.86-15.37,2.66-31,4.09-46.56,5.25s-31.09,1.28-46.64,1.85Z"/><path class="cls-1" d="M221,1433.85c-23.66,0-47.45,1.73-70.94-.23-37.23-3.12-69.84-18.29-97.21-44.11-23-21.67-38.19-48-46.26-78.37-3.65-13.76-4.74-27.88-4.74-42.19Q2.09,755,2,241.14c0-29.49-.7-59,.26-88.47.63-19.23,6.26-37.7,14.62-55.14,22.62-47.2,59.59-77.14,110-90.24,9-2.33,18.59-2.38,27.93-3.22,3.65-.33,7.38.07,11.07.14a24.47,24.47,0,0,0,2.15,2q44.13,32.71,88.28,65.4Q423,195.22,589.71,318.82q171.1,126.85,342.23,253.67l56.14,41.62c1.72-1.22,3.22-2.25,4.69-3.33Q1121.46,516,1250.13,421.24q259.35-191,518.68-382.11c16.2-11.94,32.31-24,48.46-36,42.55.49,79.76,14.64,111,43.71a154.62,154.62,0,0,1,40.23,59.44c4.81,12.86,9.15,26,9.5,40q.84,33.35,1.63,66.71c-4,2.65-8.09,5.17-12,8q-61.23,43.7-122.41,87.47L1754.89,373a41.53,41.53,0,0,0-4.77,2.47q-73.29,50.49-146.55,101Q1505,544.42,1406.44,612.23q-74.94,51.61-149.83,103.3-106.56,73.38-213.15,146.71c-18.2,12.53-36.31,25.18-54.47,37.78l-4.84-2.07a10.78,10.78,0,0,0-1.09-1Q900.73,839.6,818.38,782.27q-188.28-131-376.58-262-96.3-67-192.57-134c-8.84-6.15-17.71-12.25-27.52-19-.18,3.73-.42,6.46-.42,9.2q0,518.49,0,1037c0,2.17.06,4.33.09,6.5l-.21,12.14Z"/><path class="cls-2" d="M1753.25,1433.67c-4-3.16-7.82-6.55-12-9.46q-50.54-35.17-101.19-70.2-64.3-44.63-128.57-89.32-47.08-32.73-94.13-65.5Q1348,1151,1278.58,1102.74q-52.19-36.29-104.35-72.63-70.83-49.23-141.68-98.42c-14.58-10.15-29-20.5-43.53-30.76q0-.46,0-.92c18.15-12.6,36.27-25.25,54.47-37.78Q1150,788.85,1256.61,715.53q74.94-51.61,149.83-103.3,98.55-67.87,197.14-135.68,73.3-50.48,146.55-101a41.56,41.56,0,0,1,4.77-2.47l-.16,2q0,3.46,0,6.91,0,39,0,78.08,0,2.47,0,4.93,0,21,0,42.06,0,2.47,0,4.94c.05,2.5.14,5,.14,7.49q.09,453.53.17,907.07c0,2.16.15,4.32.22,6.48a2.06,2.06,0,0,0-.18.78Z"/><path class="cls-3" d="M1753.25,1433.67c-1.81.11-3.63.31-5.44.31q-759.29,0-1518.59,0c-1.82,0-3.63-.19-5.45-.29a23.89,23.89,0,0,1,3-3.11q9.29-6.72,18.71-13.26,76.55-53.22,153.12-106.4l129.8-90.17q34.8-24.18,69.58-48.4Q658.52,1130.18,719,1088q36.42-25.35,72.9-50.61Q852.51,995.22,913,953c18.4-12.83,36.76-25.73,55.22-38.48,6.81-4.7,13.85-9.06,20.78-13.58,14.51,10.26,28.95,20.61,43.53,30.76q70.8,49.27,141.68,98.42,52.2,36.28,104.35,72.63,69.38,48.24,138.79,96.45,47.08,32.73,94.13,65.5,64.27,44.68,128.57,89.32,50.59,35.11,101.19,70.2C1745.43,1427.12,1749.26,1430.51,1753.25,1433.67Z"/><path class="cls-1" d="M989,900q0,.46,0,.92c-6.93,4.52-14,8.88-20.78,13.58C949.78,927.27,931.42,940.17,913,953Q852.49,995.2,792,1037.38,755.53,1062.73,719,1088q-60.56,42.15-121.07,84.37-34.77,24.22-69.58,48.4l-129.8,90.17q-76.57,53.19-153.12,106.4-9.42,6.55-18.71,13.26a23.89,23.89,0,0,0-3,3.11l-2.73.15q.06-.91.12-1.82l.9-10.13q46.42-31.92,92.85-63.83,49.52-34,99.06-68L513,1222l115.08-79,118-81q57.54-39.52,115.09-79,55.3-37.95,110.61-75.87c4.22-2.9,8.25-6.08,12.37-9.13Z"/><path class="cls-3" d="M984.15,897.95c-4.12,3-8.15,6.23-12.37,9.13q-55.28,38-110.61,75.87-57.56,39.5-115.09,79l-118,81L513,1222,414,1290q-49.53,34-99.06,68-46.43,31.9-92.85,63.83l-.7-2c0-2.17-.09-4.33-.09-6.5q0-518.49,0-1037c0-2.73.24-5.47.42-9.2,9.8,6.77,18.68,12.87,27.52,19q96.29,67,192.57,134,188.29,131,376.58,262,82.36,57.31,164.68,114.68A10.79,10.79,0,0,1,984.15,897.95Z"/><path class="cls-3" d="M1817.27,3.12c-16.15,12-32.26,24.07-48.46,36q-259.33,191.07-518.68,382.11Q1121.46,516,992.77,610.78c-1.46,1.08-3,2.11-4.69,3.33l-56.14-41.62Q760.82,445.65,589.71,318.82,423,195.24,256.34,71.63q-44.13-32.72-88.28-65.4a24.47,24.47,0,0,1-2.15-2c2-.4,4.05-1.15,6.08-1.15Q259,3,346,3h1463.3C1811.94,3,1814.61,3.08,1817.27,3.12Z"/></svg>