<svg id="Layer_1" data-name="Layer 1" xmlns="http://www.w3.org/2000/svg" viewBox="0 0 1978 522"><defs><style>.cls-1{fill:#ddd;}.cls-2{fill:#fff;}</style></defs><title>Artboard 1</title><path class="cls-1" d="M1977.17,261.42q0,110.48.08,221c0,15.06-5,27.32-18.25,34.73-5.59,3.12-12.51,5.42-18.83,5.43q-222.72.45-445.43.2a37.53,37.53,0,0,1-37.41-36.64c0-.83,0-1.67,0-2.5q0-222.22,0-444.44c0-19.48,11-34,29.31-38.29a57.19,57.19,0,0,1,12.88-1.17q218-.09,435.94-.08c12.93,0,24.37,3.24,33,13.47,5.08,6,8.22,12.87,8.5,20.86.11,3,.21,6,.21,9Q1977.18,152.19,1977.17,261.42ZM1819.33,438.29h6c22.5,0,45-.17,67.49.13,5.17.07,6.4-1.46,6.38-6.44-.19-41.66.1-83.32-.23-125a245.22,245.22,0,0,0-2.81-35.27c-7.25-47-40.08-75.63-86.7-76.3-29.44-.42-53.16,10.33-69.91,35.06a11,11,0,0,0-.93,2.58l-1.68-1.2V201.13a21.51,21.51,0,0,0-2.43-.33c-24.16,0-48.33,0-72.49-.1-3.93,0-4.17,2-4.17,5q0,113.73-.09,227.47c0,4.32,1.48,5.24,5.47,5.21,23-.16,46-.08,69-.09,1.59,0,3.19-.15,5.12-.24,0-2.54,0-4.52,0-6.49,0-41.83.07-83.66,0-125.48,0-13.55,3.36-25.71,13.18-35.47,11.52-11.44,25.42-14.68,40.92-10.81,14.62,3.65,22.14,14.44,25.14,28.22a133.55,133.55,0,0,1,2.7,27.22c.29,37.33.12,74.66.12,112Zm-283.59-.35H1615c.1-2,.26-3.58.26-5.2q0-113.19.13-226.39c0-4.9-1.73-5.7-6-5.67-22.49.17-45,.27-67.46-.06-5.31-.08-6.25,1.68-6.24,6.52q.21,112.44.1,224.89C1535.74,433.84,1535.74,435.64,1535.74,437.94Zm39.62-268.3c4-.48,8-.71,11.86-1.47,17.63-3.43,30.8-17.29,32.92-34.43,2.2-17.8-6.61-34.75-22.24-42.21-10.4-5-21.36-5.8-32.66-3.75-24.56,4.45-39.1,27.36-32.58,51.51C1537.69,157.93,1553.86,169.3,1575.36,169.64Z"/><path class="cls-2" d="M1378.6,437.88h-68.43l-3.34-36.23a36.12,36.12,0,0,0-2.9,3.25C1288.59,428.37,1266,439.7,1239,443c-51.75,6.29-98.57-24.85-114.39-80.46-11.33-39.81-9.55-79.35,9.6-116.66,30.39-59.22,95-70.75,139.57-51.75,9.78,4.17,18,10.52,25.27,18.82V95.1h79.57Zm-78.73-125.17-1.3-.05c0-9.48,1.11-19.12-.23-28.4-2.79-19.23-17.29-34.26-35-38.09-20.65-4.49-40.5,2.88-52,19.32-7.95,11.35-11.68,24.22-12.91,37.81-1.76,19.57,0,38.58,10.42,55.92s29.86,26,51,22.78a44.62,44.62,0,0,0,37.35-35.55C1299.39,335.46,1299.08,324,1299.87,312.72Z"/><path class="cls-2" d="M788.7,291.33,891.92,437.85c-2.17.13-3.44.26-4.72.26-29.16,0-58.32,0-87.48.09-3.27,0-5-1-6.7-3.79Q765.07,388,736.88,341.71c-.93-1.53-1.93-3-3.12-4.88-6.34,8-12.43,15.46-18.24,23.16-1.06,1.41-1.34,3.69-1.35,5.56-.09,22.16-.06,44.33-.06,66.49v5.75H635.83V95.08H714V289.5l1,.3c1.63-2.43,3.21-4.89,4.9-7.27q31.19-44,62.5-88a8.06,8.06,0,0,1,5.57-3.08c29.33-.19,58.66-.13,88-.12.62,0,1.24.15,3,.37Z"/><path class="cls-2" d="M1091.4,428.88c-15.28,3.71-30,8-44.92,10.73-19.54,3.63-39.41,4.38-59.25,3.28-24.39-1.35-47.77-6.68-68.91-19.56-28.12-17.14-44.56-42.47-50.67-74.45-7.74-40.47-2-78.7,21.88-113,21.77-31.31,52.68-46.9,90.3-49.95,20.34-1.65,40.29.08,59.35,7.87,31.86,13,50.32,37.69,59.76,69.88,7,23.73,7.51,47.87,4.18,72.26-.58,4.23-3.17,3.5-5.7,3.49q-55.73-.13-111.45-.32-20.74-.06-41.48-.06c-1.47,0-2.94.13-4.77.21a41.51,41.51,0,0,0,15.71,30.35c14,11.49,30.74,15.6,48.32,16.35,25.47,1.09,50.54-1.61,74.88-9.67a15.16,15.16,0,0,1,2.15-.28Zm-152.48-143h93.38c-.47-4.14-.73-7.93-1.35-11.65-5.15-30.76-33.54-46.65-61.76-34C950,248.79,942.31,265.74,938.92,285.85Z"/><path class="cls-2" d="M363.43,201.92H441.7v31.15l1,.29c.65-.84,1.33-1.65,1.93-2.53,19-27.55,45.87-37.16,78.1-34.29,44.7,4,71.14,34,78.1,77.78A187,187,0,0,1,603,302.67c.22,43.49.1,87,.09,130.49,0,1.47-.12,2.93-.2,4.67h-78.3c0-2,0-3.87,0-5.79,0-39.16.17-78.33-.13-117.49a126.66,126.66,0,0,0-2.86-26.73c-3.2-14.2-11.26-25-26.26-28.44-15.52-3.56-29.5-.17-40.79,11.53a43.73,43.73,0,0,0-12.72,31.58c.08,43,0,86,0,129,0,2,0,3.95,0,6.28H363.43Z"/><path class="cls-2" d="M-.46,95H77.77V366.8H216.33v71.06H-.46Z"/><path class="cls-2" d="M326.39,437.94H248.3V202h78.09Z"/><path class="cls-2" d="M286.68,87.58c23.86-.08,41,13.06,44.31,33.33,4.14,25.05-12.3,46-37.84,48.06-14.71,1.2-28.4-1.44-38.88-12.7-11.34-12.19-13.82-26.7-8.34-42.2,5.63-15.93,18.11-23.55,34.22-26C282.62,87.68,285.14,87.69,286.68,87.58Z"/></svg>