<svg id="Layer_1" data-name="Layer 1" xmlns="http://www.w3.org/2000/svg" viewBox="0 0 2000 557"><defs><style>.cls-1{fill:#b82b27;}.cls-2{fill:#b92c28;}.cls-3{fill:#b82b28;}.cls-4{fill:#fff;}</style></defs><title>Artboard 1</title><path class="cls-1" d="M401.34,435.69c13.17,18.51,26.14,37,50.13,42.46,25.41,5.78,45.42-7.33,50.72-32.9.24-1.13.55-2.25.89-3.62h35.67c.89,12-.86,23.45-3.84,34.69-8.35,31.46-25.27,56.32-55.79,70.11-20.25,9.16-41.7,11-63.56,9.05C373.2,551.78,343.83,528,321.24,494c-1-1.53-2-3.07-3-4.6-6.22-9.61-6.18-9.43-17.1-7.18-79.76,16.41-150.59-2.93-212.41-54.93-41.8-35.16-68.92-80.09-78.15-134C-5.3,200.31,22.35,122.13,95,61.19A231.6,231.6,0,0,1,221.31,7.37C296.72-.66,363,21.46,418.58,73,462.37,113.58,487,164.33,492,223.87c7.12,84.77-22.07,154.73-87.72,209.19C403.42,433.8,402.58,434.59,401.34,435.69ZM362,371c11.58-26,16.47-52.18,19-78.95a489.68,489.68,0,0,0,0-89.83c-2.43-26.79-7.2-53.06-18-77.94-12.83-29.57-33-51.83-63.89-62.88-23-8.24-46.89-9.29-71-6.5-38.05,4.42-66.79,23-85.17,56.88-15.39,28.36-21.11,59.35-24,91a494.94,494.94,0,0,0,0,89.34c2.41,26.79,7.15,53.09,18,77.94,11.89,27.27,30.13,48.5,58.15,60.16,21.87,9.1,44.81,11,68.14,9.14,8.65-.71,17.21-2.55,26.42-4-3.17-6-5.63-10.93-8.28-15.72-9.06-16.39-19-32.13-33.59-44.32-10.74-9-23-14.45-37.09-15.63a65.54,65.54,0,0,0-30.86,4.42L165.08,334.5c27.5-22.07,59.23-28.71,93.27-27.49C304.49,308.68,337.48,332.14,362,371Z"/><path class="cls-2" d="M739.72,165.32V122.13H890.93v6q0,117.5,0,235a92.71,92.71,0,0,0,.9,14.42c2.26,14.25,10.08,21.68,24.45,23.45,5.25.65,10.56.88,16.09,1.32V447L797.28,468.53V420.6c-2.54,2-4.17,2.89-5.3,4.21-23,26.9-51.83,43.48-86.89,48.65-23.64,3.48-47.22,3.28-70.09-4.79-30.46-10.75-48.25-33.07-56.82-63.49-4.64-16.49-5.9-33.41-5.92-50.45q-.05-78.75,0-157.5c0-3.33,0-6.67-.21-10-.78-13-7.66-20.43-20.63-21.19-9.93-.58-19.92-.12-30.17-.12V122h149.7c0,1.9,0,3.83,0,5.75q0,112.25.1,224.5c0,7.93.52,16.1,2.42,23.75,5.43,21.86,20.43,33,42.4,35.48,27.64,3.09,58.49-7.67,74.38-34.83a14.53,14.53,0,0,0,1.93-7q.15-88.25.07-176.5c0-2-.07-4-.2-6-.83-13-7.7-20.26-20.69-21.19-8.63-.62-17.31-.49-26-.68C743.58,165.29,741.78,165.32,739.72,165.32Z"/><path class="cls-3" d="M1984.87,400.91c3.38,8.21,7.12,16.88,10.42,25.72.5,1.33-.67,3.73-1.74,5.13-13.56,17.84-31.61,28.85-53.29,33.71-21.53,4.82-43,4.8-63.83-3.54-18.88-7.57-30.55-21.31-34.07-41.6-.17-1-.44-1.91-.9-3.88-1.56,1.44-2.94,2.23-3.63,3.42-20.08,34.66-51.54,50.8-90.1,54.82-19.69,2.05-39.25.77-58.25-5.62-33.66-11.32-54.32-38.21-56.38-73.64-1.51-26,4-49.68,23.42-68.54,12-11.68,26.42-19.78,41.89-25.65,22.53-8.54,45.44-16,68.1-24.25,19.94-7.22,39-15.95,55.42-29.95,11.28-9.64,17.87-20.65,15-36-1.78-9.46-2.42-19.21-5.08-28.4-4.8-16.62-16.09-26.81-33.77-27.8a108.87,108.87,0,0,0-27.21,1.68c-14,2.79-23.27,12.35-29.73,24.67-3.94,7.51-7.41,15.26-11.35,22.77-12.77,24.27-43.78,33.45-67.88,20.2-13.13-7.22-20.24-22.35-18.47-38.64,2.41-22.23,15.62-36.86,33.61-48.07,19.27-12,40.76-17.92,62.93-21.18a338.89,338.89,0,0,1,106,.73c17.19,2.89,33.65,8.05,48.44,17.58,23.43,15.09,35.42,37.42,39.47,64.28a225.44,225.44,0,0,1,2.24,32.34c.24,45.33.08,90.66.13,136,0,4.49.25,9,.69,13.46,1.82,18.46,14.11,28,32.4,24.92C1974.5,404.69,1979.46,402.57,1984.87,400.91ZM1836,279.85c-12.16,11.59-27.58,18.21-42.61,25.62-12.94,6.37-26,12.72-38.05,20.59-19,12.4-26.68,30.86-24.27,53.33,1.77,16.45,9.44,29,25.51,35.07,21.25,8,46.72,1.19,61.13-16.32a79.1,79.1,0,0,0,18-47.24C1836.88,327.33,1836,303.68,1836,279.85Z"/><path class="cls-1" d="M1314.5,288.94c-.46,49.94-13.93,91.53-45,126.48-27.56,31-62.4,49.38-103,56.61-54.84,9.77-105.36-.9-150.07-34.71-35.71-27-57.76-63-66.44-106.93-8.3-41.94-4.21-82.69,15.35-121,23.2-45.44,60.19-75.27,109.07-88.68,63.83-17.52,123.69-8.11,176.36,33.48,36.75,29,56.63,68.13,62.23,114.5C1314,276.6,1314.19,284.61,1314.5,288.94Zm-109.77-2c-.93-14.62-1.42-29.28-2.89-43.85-1.82-17.94-6-35.32-13.85-51.79-20.63-43.14-80.12-44.81-105.4-13.43-11.79,14.64-18.61,31.46-22.46,49.52-8.68,40.74-8.41,81.73-1.72,122.68,3.18,19.48,9.25,38.05,20.51,54.69,25.09,37.08,75.78,32.31,96.52,8.3,9.83-11.37,15.65-24.65,19.51-38.91C1202.69,345.59,1203.86,316.33,1204.73,286.93Z"/><path class="cls-2" d="M1532.8,424v44.19H1318v-44c8.8,0,17.41.07,26,0a37.8,37.8,0,0,0,6.91-1c12.73-2.57,18.68-9,20-21.94a153.35,153.35,0,0,0,.94-16q.1-95.74,0-191.47c0-18.46-7.85-26.86-26.41-27.92-8.12-.46-16.28-.08-24.79-.08V122h137.16l7,71,1.77.54a41.81,41.81,0,0,0,2.38-4.84c8.28-24,21.91-44.06,43.25-58.27,19.15-12.75,40.15-18.35,63.13-14.54,26,4.31,42.43,22.56,43.3,49a84.23,84.23,0,0,1-2.78,24.63c-6.77,24.74-26.63,34.72-50.47,32.11-10-1.1-18.62-5.64-27.22-10.53-6.16-3.51-12.6-7.11-19.39-8.81-16.48-4.14-31.59,3.07-40.62,18.26a54.86,54.86,0,0,0-8.16,28c-.18,48-.08,96,0,144a45.57,45.57,0,0,0,1.31,9.88c3,13.42,11.64,20.51,27.51,21.49C1510,424.54,1521.15,424,1532.8,424Z"/><path class="cls-4" d="M401.34,435.69c13.17,18.51,26.14,37,50.13,42.46,25.41,5.78,45.42-7.33,50.72-32.9.24-1.13.55-2.25.89-3.62h35.67c.89,12-.86,23.45-3.84,34.69-8.35,31.46-25.27,56.32-55.79,70.11-20.25,9.16-41.7,11-63.56,9.05C373.2,551.78,343.83,528,321.24,494c-1-1.53-2-3.07-3-4.6-6.22-9.61-6.18-9.43-17.1-7.18-79.76,16.41-150.59-2.93-212.41-54.93-41.8-35.16-68.92-80.09-78.15-134C-5.3,200.31,22.35,122.13,95,61.19A231.6,231.6,0,0,1,221.31,7.37C296.72-.66,363,21.46,418.58,73,462.37,113.58,487,164.33,492,223.87c7.12,84.77-22.07,154.73-87.72,209.19C403.42,433.8,402.58,434.59,401.34,435.69ZM362,371c11.58-26,16.47-52.18,19-78.95a489.68,489.68,0,0,0,0-89.83c-2.43-26.79-7.2-53.06-18-77.94-12.83-29.57-33-51.83-63.89-62.88-23-8.24-46.89-9.29-71-6.5-38.05,4.42-66.79,23-85.17,56.88-15.39,28.36-21.11,59.35-24,91a494.94,494.94,0,0,0,0,89.34c2.41,26.79,7.15,53.09,18,77.94,11.89,27.27,30.13,48.5,58.15,60.16,21.87,9.1,44.81,11,68.14,9.14,8.65-.71,17.21-2.55,26.42-4-3.17-6-5.63-10.93-8.28-15.72-9.06-16.39-19-32.13-33.59-44.32-10.74-9-23-14.45-37.09-15.63a65.54,65.54,0,0,0-30.86,4.42L165.08,334.5c27.5-22.07,59.23-28.71,93.27-27.49C304.49,308.68,337.48,332.14,362,371Z"/><path class="cls-4" d="M739.72,165.32V122.13H890.93v6q0,117.5,0,235a92.71,92.71,0,0,0,.9,14.42c2.26,14.25,10.08,21.68,24.45,23.45,5.25.65,10.56.88,16.09,1.32V447L797.28,468.53V420.6c-2.54,2-4.17,2.89-5.3,4.21-23,26.9-51.83,43.48-86.89,48.65-23.64,3.48-47.22,3.28-70.09-4.79-30.46-10.75-48.25-33.07-56.82-63.49-4.64-16.49-5.9-33.41-5.92-50.45q-.05-78.75,0-157.5c0-3.33,0-6.67-.21-10-.78-13-7.66-20.43-20.63-21.19-9.93-.58-19.92-.12-30.17-.12V122h149.7c0,1.9,0,3.83,0,5.75q0,112.25.1,224.5c0,7.93.52,16.1,2.42,23.75,5.43,21.86,20.43,33,42.4,35.48,27.64,3.09,58.49-7.67,74.38-34.83a14.53,14.53,0,0,0,1.93-7q.15-88.25.07-176.5c0-2-.07-4-.2-6-.83-13-7.7-20.26-20.69-21.19-8.63-.62-17.31-.49-26-.68C743.58,165.29,741.78,165.32,739.72,165.32Z"/><path class="cls-4" d="M1984.87,400.91c3.38,8.21,7.12,16.88,10.42,25.72.5,1.33-.67,3.73-1.74,5.13-13.56,17.84-31.61,28.85-53.29,33.71-21.53,4.82-43,4.8-63.83-3.54-18.88-7.57-30.55-21.31-34.07-41.6-.17-1-.44-1.91-.9-3.88-1.56,1.44-2.94,2.23-3.63,3.42-20.08,34.66-51.54,50.8-90.1,54.82-19.69,2.05-39.25.77-58.25-5.62-33.66-11.32-54.32-38.21-56.38-73.64-1.51-26,4-49.68,23.42-68.54,12-11.68,26.42-19.78,41.89-25.65,22.53-8.54,45.44-16,68.1-24.25,19.94-7.22,39-15.95,55.42-29.95,11.28-9.64,17.87-20.65,15-36-1.78-9.46-2.42-19.21-5.08-28.4-4.8-16.62-16.09-26.81-33.77-27.8a108.87,108.87,0,0,0-27.21,1.68c-14,2.79-23.27,12.35-29.73,24.67-3.94,7.51-7.41,15.26-11.35,22.77-12.77,24.27-43.78,33.45-67.88,20.2-13.13-7.22-20.24-22.35-18.47-38.64,2.41-22.23,15.62-36.86,33.61-48.07,19.27-12,40.76-17.92,62.93-21.18a338.89,338.89,0,0,1,106,.73c17.19,2.89,33.65,8.05,48.44,17.58,23.43,15.09,35.42,37.42,39.47,64.28a225.44,225.44,0,0,1,2.24,32.34c.24,45.33.08,90.66.13,136,0,4.49.25,9,.69,13.46,1.82,18.46,14.11,28,32.4,24.92C1974.5,404.69,1979.46,402.57,1984.87,400.91ZM1836,279.85c-12.16,11.59-27.58,18.21-42.61,25.62-12.94,6.37-26,12.72-38.05,20.59-19,12.4-26.68,30.86-24.27,53.33,1.77,16.45,9.44,29,25.51,35.07,21.25,8,46.72,1.19,61.13-16.32a79.1,79.1,0,0,0,18-47.24C1836.88,327.33,1836,303.68,1836,279.85Z"/><path class="cls-4" d="M1314.5,288.94c-.46,49.94-13.93,91.53-45,126.48-27.56,31-62.4,49.38-103,56.61-54.84,9.77-105.36-.9-150.07-34.71-35.71-27-57.76-63-66.44-106.93-8.3-41.94-4.21-82.69,15.35-121,23.2-45.44,60.19-75.27,109.07-88.68,63.83-17.52,123.69-8.11,176.36,33.48,36.75,29,56.63,68.13,62.23,114.5C1314,276.6,1314.19,284.61,1314.5,288.94Zm-109.77-2c-.93-14.62-1.42-29.28-2.89-43.85-1.82-17.94-6-35.32-13.85-51.79-20.63-43.14-80.12-44.81-105.4-13.43-11.79,14.64-18.61,31.46-22.46,49.52-8.68,40.74-8.41,81.73-1.72,122.68,3.18,19.48,9.25,38.05,20.51,54.69,25.09,37.08,75.78,32.31,96.52,8.3,9.83-11.37,15.65-24.65,19.51-38.91C1202.69,345.59,1203.86,316.33,1204.73,286.93Z"/><path class="cls-4" d="M1532.8,424v44.19H1318v-44c8.8,0,17.41.07,26,0a37.8,37.8,0,0,0,6.91-1c12.73-2.57,18.68-9,20-21.94a153.35,153.35,0,0,0,.94-16q.1-95.74,0-191.47c0-18.46-7.85-26.86-26.41-27.92-8.12-.46-16.28-.08-24.79-.08V122h137.16l7,71,1.77.54a41.81,41.81,0,0,0,2.38-4.84c8.28-24,21.91-44.06,43.25-58.27,19.15-12.75,40.15-18.35,63.13-14.54,26,4.31,42.43,22.56,43.3,49a84.23,84.23,0,0,1-2.78,24.63c-6.77,24.74-26.63,34.72-50.47,32.11-10-1.1-18.62-5.64-27.22-10.53-6.16-3.51-12.6-7.11-19.39-8.81-16.48-4.14-31.59,3.07-40.62,18.26a54.86,54.86,0,0,0-8.16,28c-.18,48-.08,96,0,144a45.57,45.57,0,0,0,1.31,9.88c3,13.42,11.64,20.51,27.51,21.49C1510,424.54,1521.15,424,1532.8,424Z"/></svg>