<svg id="Layer_1" data-name="Layer 1" xmlns="http://www.w3.org/2000/svg" viewBox="0 0 1149 340"><defs><style>.cls-1{fill:#ddd;}.cls-2{fill:#fff;}</style></defs><title>Artboard 1</title><path class="cls-1" d="M0,52c7.49,0,15,.11,22.48.14,6.75,0,13.5,0,20.25,0h2.91v3.27q0,57.86,0,115.73a44.82,44.82,0,0,0,8,26.54A43.26,43.26,0,0,0,132.08,177c.21-2.23.34-4.48.34-6.72q0-57.49,0-115v-3c1-.06,1.75-.13,2.48-.13,13.75,0,27.5,0,41.24-.06,1.92,0,2.49.71,3,2.4,10.13,33.43,24,65.15,42.94,94.61.56.87,1.16,1.71,2,3,1.47-4.14,2.65-7.74,4-11.26,5.43-14,13-26.61,23.68-37.21,15.35-15.27,33.87-23.79,55.55-25.22,28.73-1.89,53.21,7.68,73.19,28.19,14.44,14.82,22.69,32.8,25,53.45,5.26,46.61-26.34,90.72-72.11,100.25-23.76,4.95-46.48,1.09-68.22-9.29-4.55-2.18-8.92-4.74-13.77-7.33L231,340H184c0-.16,0-.33.07-.49Q197.93,274.27,211.73,209a4.93,4.93,0,0,0-.77-3.6,288.8,288.8,0,0,1-30.86-50.28c-.32-.66-.77-1.27-1.15-1.9-.44,6.13-.37,12-.47,17.94a104.11,104.11,0,0,1-.64,11.71c-3.21,24.55-14.28,44.82-33.76,60.18-20.19,15.91-43.26,22.2-68.63,18.19-37.64-6-66.2-33.81-74.07-71.31C1,188.12.47,186.32,0,184.5Q0,118.25,0,52ZM313.56,216a44.41,44.41,0,0,0,32.17-12.54c20.18-19.25,19.08-50.68-2.23-68.83-14.41-12.27-36.54-14.13-52.2-4.24-9.69,6.12-15.53,15.32-19.79,25.66-5,12.09-6.4,25.08-9.36,37.69a3.1,3.1,0,0,0,1.06,2.46c2.18,1.79,4.48,3.45,6.82,5C283.19,210.16,297.42,215.9,313.56,216Z"/><path class="cls-2" d="M1149,257q-13.49.07-27,.13c-5.66,0-11.33-.06-17,0a4,4,0,0,1-3.74-1.84c-17.82-24.36-35.74-48.65-53.52-73-4.31-5.91-10-7.81-17.2-7.09V257H991.31c0-.87,0-1.74,0-2.61q0-126,0-251.91c0-.82.12-1.65.18-2.47h39V135.85c13.16.72,25.05-1.92,35.56-9.41,14.72-10.49,22.12-25,22.78-43.07h39.32c-1.44,35.22-17.23,61.78-47.19,80.16.52.77,1,1.47,1.45,2.13q24.8,33.8,49.61,67.58c5.61,7.62,11.31,15.18,17,22.76Z"/><path class="cls-2" d="M510.28,83.29h7.07c9.33,0,18.66.05,28,0,1.83,0,2.56.51,3,2.31q13,52.86,26.1,105.69a118.14,118.14,0,0,0,3.47,12.07c1-3.68,2.1-7.36,3.11-11.05q14.54-53.34,29-106.69c.45-1.67,1.12-2.35,3-2.33,11.33.11,22.66.05,34,.06.73,0,1.46.07,2.49.13-1.6,5.6-3.13,11-4.7,16.38q-22.5,77.46-45,154.93c-.51,1.77-1.23,2.46-3.21,2.44-11.41-.11-22.83-.09-34.24,0-1.67,0-2.47-.35-2.92-2.12Q544.83,197.12,530,139.22a5.26,5.26,0,0,0-1.28-2.38c-.23.71-.51,1.41-.69,2.13Q513.23,197,498.46,255c-.39,1.52-.92,2.17-2.63,2.16q-17.5-.12-35,0a2.2,2.2,0,0,1-2.57-1.91q-20.8-71.86-41.71-143.7-3.65-12.55-7.3-25.1c-.27-.93-.5-1.87-.81-3h38.84L480,203.24l.54.07Z"/><path class="cls-2" d="M651.85,170.13A92.1,92.1,0,1,1,743,262.35,92,92,0,0,1,651.85,170.13Zm92.23-54.3c-29.8-.13-54.26,24-54.6,53.46a54.47,54.47,0,1,0,54.6-53.46Z"/><path class="cls-2" d="M900.57,257h-39V83.44h38.93V109.3l.45.49c15.92-21,37.31-28.75,63-26.14V122c-.87,0-1.82,0-2.77,0-8.05.17-16.13-.52-24.11,1.37-19.45,4.6-34.67,22.11-36.16,41.89-.21,2.82-.34,5.65-.34,8.48q0,40.11,0,80.23Z"/></svg>